<?xml version="1.0" encoding="UTF-8" standalone="no"?>
<!-- Generator: Adobe Illustrator 16.0.0, SVG Export Plug-In . SVG Version: 6.00 Build 0)  -->

<svg
   version="1.1"
   x="0px"
   y="0px"
   width="233.50999"
   height="56.999878"
   viewBox="0 0 233.50999 56.999878"
   enable-background="new 0 0 2266.018 1821.959"
   xml:space="preserve"
   id="svg94"
   sodipodi:docname="프로젝트 작업.svg"
   inkscape:version="1.3 (0e150ed6c4, 2023-07-21)"
   xmlns:inkscape="http://www.inkscape.org/namespaces/inkscape"
   xmlns:sodipodi="http://sodipodi.sourceforge.net/DTD/sodipodi-0.dtd"
   xmlns="http://www.w3.org/2000/svg"
   xmlns:svg="http://www.w3.org/2000/svg"><defs
   id="defs94" /><sodipodi:namedview
   id="namedview94"
   pagecolor="#ffffff"
   bordercolor="#000000"
   borderopacity="0.25"
   inkscape:showpageshadow="2"
   inkscape:pageopacity="0.0"
   inkscape:pagecheckerboard="0"
   inkscape:deskcolor="#d1d1d1"
   inkscape:zoom="0.30155562"
   inkscape:cx="771.00205"
   inkscape:cy="1029.6608"
   inkscape:window-width="1920"
   inkscape:window-height="991"
   inkscape:window-x="-9"
   inkscape:window-y="-9"
   inkscape:window-maximized="1"
   inkscape:current-layer="g3" />&#10;&#10;&#10;&#10;<g
   id="레이어_3"
   transform="translate(-1120.9101,-1363.8341)">&#10;	&#10;	&#10;	&#10;	&#10;	&#10;	&#10;	&#10;	&#10;	&#10;	&#10;	<g
   id="g24"
   inkscape:export-filename="c10.svg"
   inkscape:export-xdpi="96"
   inkscape:export-ydpi="96">&#10;		&#10;		&#10;		<g
   id="g110"><path
     fill="#29633b"
     d="m 1201.007,1420.834 c -0.11,0 -0.221,0 -0.33,-0.01 l -60.667,-2.667 c -3.306,-0.146 -6.123,-2.438 -6.939,-5.645 l -4.666,-18.333 c -1.021,-4.014 1.404,-8.097 5.419,-9.118 4.01,-1.016 8.096,1.404 9.118,5.42 l 3.292,12.935 50.768,2.231 24.341,-38.338 c 1.569,-2.472 4.438,-3.797 7.338,-3.412 l 88.666,12.002 c 1.411,0.191 2.737,0.78 3.827,1.698 l 23.334,19.666 c 3.168,2.669 3.57,7.4 0.901,10.567 -2.672,3.169 -7.4,3.571 -10.567,0.9 l -21.667,-18.261 -81.744,-11.063 -24.091,37.942 c -1.382,2.176 -3.776,3.483 -6.333,3.483 z"
     id="path22" /><circle
     fill="#ffffff"
     stroke="#29633b"
     stroke-width="7"
     stroke-miterlimit="10"
     cx="1340.999"
     cy="1403.001"
     r="9.9209995"
     id="circle23" /><circle
     fill="#ffffff"
     stroke="#29633b"
     stroke-width="7"
     stroke-miterlimit="10"
     cx="1134.3311"
     cy="1389.415"
     r="9.9209995"
     id="circle24" /></g>&#10;	</g>&#10;	&#10;	&#10;	&#10;	&#10;	&#10;	&#10;	&#10;	&#10;	&#10;	&#10;	&#10;</g>&#10;&#10;</svg>
