<?xml version="1.0" encoding="UTF-8" standalone="no"?>
<!-- Generator: Adobe Illustrator 16.0.0, SVG Export Plug-In . SVG Version: 6.00 Build 0)  -->

<svg
   version="1.1"
   x="0px"
   y="0px"
   width="189.46204"
   height="178.17102"
   viewBox="0 0 189.46203 178.17102"
   enable-background="new 0 0 2266.018 1821.959"
   xml:space="preserve"
   id="svg94"
   sodipodi:docname="프로젝트 작업.svg"
   inkscape:version="1.3 (0e150ed6c4, 2023-07-21)"
   xmlns:inkscape="http://www.inkscape.org/namespaces/inkscape"
   xmlns:sodipodi="http://sodipodi.sourceforge.net/DTD/sodipodi-0.dtd"
   xmlns="http://www.w3.org/2000/svg"
   xmlns:svg="http://www.w3.org/2000/svg"><defs
   id="defs94" /><sodipodi:namedview
   id="namedview94"
   pagecolor="#ffffff"
   bordercolor="#000000"
   borderopacity="0.25"
   inkscape:showpageshadow="2"
   inkscape:pageopacity="0.0"
   inkscape:pagecheckerboard="0"
   inkscape:deskcolor="#d1d1d1"
   inkscape:zoom="0.30155562"
   inkscape:cx="771.00205"
   inkscape:cy="1029.6608"
   inkscape:window-width="1920"
   inkscape:window-height="991"
   inkscape:window-x="-9"
   inkscape:window-y="-9"
   inkscape:window-maximized="1"
   inkscape:current-layer="g3" />&#10;&#10;&#10;&#10;<g
   id="레이어_3"
   transform="translate(-795.58102,-1435.7519)">&#10;	&#10;	&#10;	&#10;	&#10;	&#10;	&#10;	&#10;	&#10;	&#10;	&#10;	&#10;	&#10;	<g
   id="g28"
   inkscape:export-filename="c12.svg"
   inkscape:export-xdpi="96"
   inkscape:export-ydpi="96">&#10;		&#10;		&#10;		<g
   id="g108"><path
     fill="#836fa0"
     d="m 809.006,1606.834 c -1.707,0 -3.425,-0.579 -4.831,-1.767 -3.166,-2.671 -3.568,-7.401 -0.898,-10.568 l 104,-123.333 c 1.425,-1.689 3.522,-2.665 5.733,-2.665 h 15.095 l 36.795,-24.106 c 3.465,-2.269 8.114,-1.302 10.384,2.163 2.271,3.466 1.302,8.114 -2.163,10.385 l -38.667,25.333 c -1.222,0.801 -2.649,1.227 -4.109,1.227 H 916.497 L 814.743,1604.17 c -1.483,1.758 -3.603,2.664 -5.737,2.664 z"
     id="path26" /><circle
     fill="#ffffff"
     stroke="#836fa0"
     stroke-width="7"
     stroke-miterlimit="10"
     cx="971.62201"
     cy="1449.173"
     r="9.9209995"
     id="circle27" /><circle
     fill="#ffffff"
     stroke="#836fa0"
     stroke-width="7"
     stroke-miterlimit="10"
     cx="809.00201"
     cy="1600.502"
     r="9.9209995"
     id="circle28" /></g>&#10;	</g>&#10;	&#10;	&#10;	&#10;	&#10;	&#10;	&#10;	&#10;	&#10;	&#10;</g>&#10;&#10;</svg>
