<?xml version="1.0" encoding="UTF-8" standalone="no"?>
<!-- Generator: Adobe Illustrator 16.0.0, SVG Export Plug-In . SVG Version: 6.00 Build 0)  -->

<svg
   version="1.1"
   x="0px"
   y="0px"
   width="227.50507"
   height="113.74304"
   viewBox="0 0 227.50506 113.74304"
   enable-background="new 0 0 2266.018 1821.959"
   xml:space="preserve"
   id="svg94"
   sodipodi:docname="프로젝트 작업.svg"
   inkscape:version="1.3 (0e150ed6c4, 2023-07-21)"
   xmlns:inkscape="http://www.inkscape.org/namespaces/inkscape"
   xmlns:sodipodi="http://sodipodi.sourceforge.net/DTD/sodipodi-0.dtd"
   xmlns="http://www.w3.org/2000/svg"
   xmlns:svg="http://www.w3.org/2000/svg"><defs
   id="defs94" /><sodipodi:namedview
   id="namedview94"
   pagecolor="#ffffff"
   bordercolor="#000000"
   borderopacity="0.25"
   inkscape:showpageshadow="2"
   inkscape:pageopacity="0.0"
   inkscape:pagecheckerboard="0"
   inkscape:deskcolor="#d1d1d1"
   inkscape:zoom="0.30155562"
   inkscape:cx="771.00205"
   inkscape:cy="1029.6608"
   inkscape:window-width="1920"
   inkscape:window-height="991"
   inkscape:window-x="-9"
   inkscape:window-y="-9"
   inkscape:window-maximized="1"
   inkscape:current-layer="g3" />&#10;&#10;&#10;&#10;<g
   id="레이어_3"
   transform="translate(-591.915,-814.07897)">&#10;	&#10;	&#10;	&#10;	&#10;	&#10;	&#10;	&#10;	&#10;	&#10;	&#10;	&#10;	&#10;	&#10;	&#10;	&#10;	<g
   id="g105"
   inkscape:export-filename="c15.svg"
   inkscape:export-xdpi="96"
   inkscape:export-ydpi="96"><g
     id="g34">&#10;		<path
   fill="#85451f"
   d="m 735.993,927.822 c -1.46,0 -2.934,-0.426 -4.226,-1.31 l -92.813,-63.417 -26.768,39.118 c -2.339,3.418 -7.005,4.295 -10.425,1.954 -3.419,-2.339 -4.293,-7.007 -1.954,-10.425 l 31,-45.304 c 2.338,-3.415 7.002,-4.295 10.421,-1.957 l 93.105,63.617 65.687,-86.633 c 2.504,-3.301 7.206,-3.948 10.508,-1.445 3.302,2.504 3.947,7.207 1.445,10.509 l -70,92.32 c -1.467,1.943 -3.706,2.972 -5.98,2.973 z"
   id="path32" />&#10;		<circle
   fill="#ffffff"
   stroke="#85451f"
   stroke-width="7"
   stroke-miterlimit="10"
   cx="605.336"
   cy="900.03101"
   r="9.9209995"
   id="circle33" />&#10;		<circle
   fill="#ffffff"
   stroke="#85451f"
   stroke-width="7"
   stroke-miterlimit="10"
   cx="805.99902"
   cy="827.5"
   r="9.9209995"
   id="circle34" />&#10;	</g></g>&#10;	&#10;	&#10;	&#10;	&#10;	&#10;	&#10;</g>&#10;&#10;</svg>
