<?xml version="1.0" encoding="UTF-8" standalone="no"?>
<!-- Generator: Adobe Illustrator 16.0.0, SVG Export Plug-In . SVG Version: 6.00 Build 0)  -->

<svg
   version="1.1"
   x="0px"
   y="0px"
   width="85.420227"
   height="305.84201"
   viewBox="0 0 85.420225 305.84201"
   enable-background="new 0 0 2266.018 1821.959"
   xml:space="preserve"
   id="svg94"
   sodipodi:docname="프로젝트 작업.svg"
   inkscape:version="1.3 (0e150ed6c4, 2023-07-21)"
   xmlns:inkscape="http://www.inkscape.org/namespaces/inkscape"
   xmlns:sodipodi="http://sodipodi.sourceforge.net/DTD/sodipodi-0.dtd"
   xmlns="http://www.w3.org/2000/svg"
   xmlns:svg="http://www.w3.org/2000/svg"><defs
   id="defs94" /><sodipodi:namedview
   id="namedview94"
   pagecolor="#ffffff"
   bordercolor="#000000"
   borderopacity="0.25"
   inkscape:showpageshadow="2"
   inkscape:pageopacity="0.0"
   inkscape:pagecheckerboard="0"
   inkscape:deskcolor="#d1d1d1"
   inkscape:zoom="0.30155562"
   inkscape:cx="771.00205"
   inkscape:cy="1029.6608"
   inkscape:window-width="1920"
   inkscape:window-height="991"
   inkscape:window-x="-9"
   inkscape:window-y="-9"
   inkscape:window-maximized="1"
   inkscape:current-layer="g3" />&#10;&#10;&#10;&#10;<g
   id="레이어_3"
   transform="translate(-777.49984,-510.07901)">&#10;	&#10;	&#10;	&#10;	&#10;	&#10;	&#10;	&#10;	&#10;	&#10;	&#10;	&#10;	&#10;	&#10;	&#10;	&#10;	&#10;	<g
   id="g36"
   inkscape:export-filename="c16.svg"
   inkscape:export-xdpi="96"
   inkscape:export-ydpi="96">&#10;		&#10;		&#10;		<g
   id="g104"><path
     fill="#aa805a"
     d="m 805.992,810.501 c -1.43,0 -2.875,-0.408 -4.152,-1.261 l -21,-14 c -2.337,-1.559 -3.607,-4.29 -3.293,-7.081 l 29,-257 c 0.363,-3.227 2.762,-5.852 5.939,-6.505 l 34,-7 c 4.063,-0.838 8.023,1.775 8.858,5.833 0.836,4.058 -1.776,8.022 -5.833,8.857 l -28.67,5.903 -27.877,247.048 17.193,11.463 c 3.446,2.298 4.378,6.954 2.08,10.4 -1.442,2.17 -3.82,3.343 -6.245,3.343 z"
     id="path34" /><circle
     fill="#ffffff"
     stroke="#aa805a"
     stroke-width="7"
     stroke-miterlimit="10"
     cx="804.49902"
     cy="802.5"
     r="9.9209995"
     id="circle35" /><circle
     fill="#ffffff"
     stroke="#aa805a"
     stroke-width="7"
     stroke-miterlimit="10"
     cx="849.49902"
     cy="523.5"
     r="9.9209995"
     id="circle36" /></g>&#10;	</g>&#10;	&#10;	&#10;	&#10;	&#10;	&#10;</g>&#10;&#10;</svg>
