<?xml version="1.0" encoding="UTF-8" standalone="no"?>
<!-- Generator: Adobe Illustrator 16.0.0, SVG Export Plug-In . SVG Version: 6.00 Build 0)  -->

<svg
   version="1.1"
   x="0px"
   y="0px"
   width="206.17596"
   height="85.71405"
   viewBox="0 0 206.17596 85.714051"
   enable-background="new 0 0 2266.018 1821.959"
   xml:space="preserve"
   id="svg94"
   sodipodi:docname="프로젝트 작업.svg"
   inkscape:version="1.3 (0e150ed6c4, 2023-07-21)"
   xmlns:inkscape="http://www.inkscape.org/namespaces/inkscape"
   xmlns:sodipodi="http://sodipodi.sourceforge.net/DTD/sodipodi-0.dtd"
   xmlns="http://www.w3.org/2000/svg"
   xmlns:svg="http://www.w3.org/2000/svg"><defs
   id="defs94" /><sodipodi:namedview
   id="namedview94"
   pagecolor="#ffffff"
   bordercolor="#000000"
   borderopacity="0.25"
   inkscape:showpageshadow="2"
   inkscape:pageopacity="0.0"
   inkscape:pagecheckerboard="0"
   inkscape:deskcolor="#d1d1d1"
   inkscape:zoom="0.30155562"
   inkscape:cx="771.00205"
   inkscape:cy="1029.6608"
   inkscape:window-width="1920"
   inkscape:window-height="991"
   inkscape:window-x="-9"
   inkscape:window-y="-9"
   inkscape:window-maximized="1"
   inkscape:current-layer="g3" />&#10;&#10;&#10;&#10;<g
   id="레이어_3"
   transform="translate(-917.91397,-620.78594)">&#10;	&#10;	&#10;	&#10;	&#10;	&#10;	&#10;	&#10;	&#10;	&#10;	&#10;	&#10;	&#10;	&#10;	&#10;	&#10;	&#10;	&#10;	&#10;	<g
   id="g40"
   inkscape:export-filename="c18.svg"
   inkscape:export-xdpi="96"
   inkscape:export-ydpi="96">&#10;		&#10;		&#10;		<g
   id="g102"><path
     fill="#7d7930"
     d="m 946.995,706.5 c -3.158,0 -6.015,-1.993 -7.074,-5.021 l -14,-40 c -1.368,-3.909 0.69,-8.188 4.602,-9.558 3.912,-1.37 8.188,0.693 9.557,4.603 l 12.063,34.467 78.171,-7.271 76.364,-53.848 c 3.387,-2.386 8.064,-1.576 10.452,1.808 2.387,3.386 1.576,8.064 -1.809,10.452 l -78,55 c -1.07,0.755 -2.322,1.217 -3.628,1.338 l -86,8 c -0.232,0.019 -0.465,0.03 -0.698,0.03 z"
     id="path38" /><circle
     fill="#ffffff"
     stroke="#7d7930"
     stroke-width="7"
     stroke-miterlimit="10"
     cx="931.33502"
     cy="659.021"
     r="9.9209995"
     id="circle39" /><circle
     fill="#ffffff"
     stroke="#7d7930"
     stroke-width="7"
     stroke-miterlimit="10"
     cx="1110.6689"
     cy="634.20697"
     r="9.9209995"
     id="circle40" /></g>&#10;	</g>&#10;	&#10;	&#10;	&#10;</g>&#10;&#10;</svg>
