<?xml version="1.0" encoding="UTF-8" standalone="no"?>
<!-- Generator: Adobe Illustrator 16.0.0, SVG Export Plug-In . SVG Version: 6.00 Build 0)  -->

<svg
   version="1.1"
   x="0px"
   y="0px"
   width="82.757324"
   height="73.589233"
   viewBox="0 0 82.757322 73.589234"
   enable-background="new 0 0 2266.018 1821.959"
   xml:space="preserve"
   id="svg94"
   sodipodi:docname="프로젝트 작업.svg"
   inkscape:version="1.3 (0e150ed6c4, 2023-07-21)"
   xmlns:inkscape="http://www.inkscape.org/namespaces/inkscape"
   xmlns:sodipodi="http://sodipodi.sourceforge.net/DTD/sodipodi-0.dtd"
   xmlns="http://www.w3.org/2000/svg"
   xmlns:svg="http://www.w3.org/2000/svg"><defs
   id="defs94" /><sodipodi:namedview
   id="namedview94"
   pagecolor="#ffffff"
   bordercolor="#000000"
   borderopacity="0.25"
   inkscape:showpageshadow="2"
   inkscape:pageopacity="0.0"
   inkscape:pagecheckerboard="0"
   inkscape:deskcolor="#d1d1d1"
   inkscape:zoom="0.30155562"
   inkscape:cx="771.00205"
   inkscape:cy="1029.6608"
   inkscape:window-width="1920"
   inkscape:window-height="991"
   inkscape:window-x="-9"
   inkscape:window-y="-9"
   inkscape:window-maximized="1"
   inkscape:current-layer="g3" />&#10;&#10;&#10;&#10;<g
   id="레이어_3"
   transform="translate(-1507.7459,-291.83175)">&#10;	&#10;	&#10;	<g
   id="g8"
   inkscape:export-filename="c2.svg"
   inkscape:export-xdpi="96"
   inkscape:export-ydpi="96">&#10;		&#10;		&#10;		<g
   id="g97"><g
     id="g118"><path
       fill="#e90016"
       d="m 1556.993,360.833 c -1.289,0 -2.595,-0.333 -3.787,-1.032 -3.572,-2.095 -4.771,-6.69 -2.676,-10.264 l 20.935,-35.692 -25.135,-6.284 -19.045,16.737 c -3.112,2.733 -7.852,2.429 -10.585,-0.683 -2.733,-3.111 -2.429,-7.85 0.684,-10.584 l 22,-19.333 c 1.851,-1.625 4.382,-2.24 6.771,-1.642 l 38.667,9.667 c 2.292,0.573 4.182,2.193 5.096,4.371 0.915,2.179 0.75,4.661 -0.444,6.699 l -26.001,44.333 c -1.4,2.381 -3.906,3.707 -6.48,3.707 z"
       id="path6" /><circle
       fill="#ffffff"
       stroke="#e90016"
       stroke-width="7"
       stroke-miterlimit="10"
       cx="1521.167"
       cy="319.33301"
       r="9.9209995"
       id="circle7" /><circle
       fill="#ffffff"
       stroke="#e90016"
       stroke-width="7"
       stroke-miterlimit="10"
       cx="1556.501"
       cy="352"
       r="9.9209995"
       id="circle8" /></g></g>&#10;	</g>&#10;	&#10;	&#10;	&#10;	&#10;	&#10;	&#10;	&#10;	&#10;	&#10;	&#10;	&#10;	&#10;	&#10;	&#10;	&#10;	&#10;	&#10;	&#10;	&#10;</g>&#10;&#10;</svg>
