<?xml version="1.0" encoding="UTF-8" standalone="no"?>
<!-- Generator: Adobe Illustrator 16.0.0, SVG Export Plug-In . SVG Version: 6.00 Build 0)  -->

<svg
   version="1.1"
   x="0px"
   y="0px"
   width="63.668331"
   height="255.50497"
   viewBox="0 0 63.668329 255.50498"
   enable-background="new 0 0 2266.018 1821.959"
   xml:space="preserve"
   id="svg94"
   sodipodi:docname="프로젝트 작업.svg"
   inkscape:version="1.3 (0e150ed6c4, 2023-07-21)"
   xmlns:inkscape="http://www.inkscape.org/namespaces/inkscape"
   xmlns:sodipodi="http://sodipodi.sourceforge.net/DTD/sodipodi-0.dtd"
   xmlns="http://www.w3.org/2000/svg"
   xmlns:svg="http://www.w3.org/2000/svg"><defs
   id="defs94" /><sodipodi:namedview
   id="namedview94"
   pagecolor="#ffffff"
   bordercolor="#000000"
   borderopacity="0.25"
   inkscape:showpageshadow="2"
   inkscape:pageopacity="0.0"
   inkscape:pagecheckerboard="0"
   inkscape:deskcolor="#d1d1d1"
   inkscape:zoom="0.30155562"
   inkscape:cx="771.00205"
   inkscape:cy="1029.6608"
   inkscape:window-width="1920"
   inkscape:window-height="991"
   inkscape:window-x="-9"
   inkscape:window-y="-9"
   inkscape:window-maximized="1"
   inkscape:current-layer="g3" />&#10;&#10;&#10;&#10;<g
   id="레이어_3"
   transform="translate(-1532.8326,-355.91201)">&#10;	&#10;	&#10;	&#10;	<g
   id="g10"
   inkscape:export-filename="c3.svg"
   inkscape:export-xdpi="96"
   inkscape:export-ydpi="96">&#10;		&#10;		&#10;		<g
   id="g96"><g
     id="g117"><path
       fill="#404886"
       d="m 1564.672,604.172 c -0.587,0 -1.184,-0.068 -1.779,-0.215 -4.024,-0.979 -6.493,-5.035 -5.515,-9.061 l 23.716,-97.464 -47.57,-102.958 c -0.812,-1.757 -0.913,-3.76 -0.281,-5.591 l 6.667,-19.333 c 1.351,-3.915 5.619,-5.997 9.535,-4.645 3.916,1.351 5.995,5.62 4.646,9.536 l -5.684,16.481 47.402,102.595 c 0.711,1.538 0.88,3.272 0.479,4.919 l -24.334,100.007 c -0.836,3.429 -3.903,5.729 -7.282,5.729 z"
       id="path8" /><circle
       fill="#ffffff"
       stroke="#404886"
       stroke-width="7"
       stroke-miterlimit="10"
       cx="1549.167"
       cy="369.33301"
       r="9.9209995"
       id="circle9" /><circle
       fill="#ffffff"
       stroke="#404886"
       stroke-width="7"
       stroke-miterlimit="10"
       cx="1564.665"
       cy="597.99597"
       r="9.9209995"
       id="circle10" /></g></g>&#10;	</g>&#10;	&#10;	&#10;	&#10;	&#10;	&#10;	&#10;	&#10;	&#10;	&#10;	&#10;	&#10;	&#10;	&#10;	&#10;	&#10;	&#10;	&#10;	&#10;</g>&#10;&#10;</svg>
