<?xml version="1.0" encoding="UTF-8" standalone="no"?>
<!-- Generator: Adobe Illustrator 16.0.0, SVG Export Plug-In . SVG Version: 6.00 Build 0)  -->

<svg
   version="1.1"
   x="0px"
   y="0px"
   width="144.00586"
   height="244.92456"
   viewBox="0 0 144.00586 244.92456"
   enable-background="new 0 0 2266.018 1821.959"
   xml:space="preserve"
   id="svg94"
   sodipodi:docname="프로젝트 작업.svg"
   inkscape:version="1.3 (0e150ed6c4, 2023-07-21)"
   xmlns:inkscape="http://www.inkscape.org/namespaces/inkscape"
   xmlns:sodipodi="http://sodipodi.sourceforge.net/DTD/sodipodi-0.dtd"
   xmlns="http://www.w3.org/2000/svg"
   xmlns:svg="http://www.w3.org/2000/svg"><defs
   id="defs94" /><sodipodi:namedview
   id="namedview94"
   pagecolor="#ffffff"
   bordercolor="#000000"
   borderopacity="0.25"
   inkscape:showpageshadow="2"
   inkscape:pageopacity="0.0"
   inkscape:pagecheckerboard="0"
   inkscape:deskcolor="#d1d1d1"
   inkscape:zoom="0.30155562"
   inkscape:cx="771.00205"
   inkscape:cy="1029.6608"
   inkscape:window-width="1920"
   inkscape:window-height="991"
   inkscape:window-x="-9"
   inkscape:window-y="-9"
   inkscape:window-maximized="1"
   inkscape:current-layer="g3" />&#10;&#10;&#10;&#10;<g
   id="레이어_3"
   transform="translate(-1557.1633,-614.49645)">&#10;	&#10;	&#10;	&#10;	&#10;	<g
   id="g12"
   inkscape:export-filename="c4.svg"
   inkscape:export-xdpi="96"
   inkscape:export-ydpi="96">&#10;		&#10;		&#10;		<g
   id="g95"><g
     id="g116"><path
       fill="#864184"
       d="m 1632.327,852.832 c -1.171,0 -2.358,-0.275 -3.469,-0.855 -3.671,-1.919 -5.091,-6.449 -3.172,-10.12 l 58.299,-111.529 -47.323,-33.545 c -2.786,-1.977 -3.887,-5.585 -2.676,-8.779 l 5.092,-13.423 -78.223,-46.122 c -3.568,-2.104 -4.755,-6.702 -2.651,-10.271 2.105,-3.567 6.704,-4.755 10.271,-2.651 l 83.667,49.333 c 3.146,1.854 4.498,5.706 3.203,9.121 l -5.276,13.909 47.936,33.978 c 3.062,2.17 4.048,6.27 2.31,9.594 l -61.333,117.335 c -1.34,2.559 -3.953,4.024 -6.655,4.025 z"
       id="path10" /><circle
       fill="#ffffff"
       stroke="#864184"
       stroke-width="7"
       stroke-miterlimit="10"
       cx="1646.499"
       cy="670"
       r="9.9209995"
       id="circle11" /><circle
       fill="#ffffff"
       stroke="#864184"
       stroke-width="7"
       stroke-miterlimit="10"
       cx="1630.999"
       cy="846"
       r="9.9209995"
       id="circle12" /></g></g>&#10;	</g>&#10;	&#10;	&#10;	&#10;	&#10;	&#10;	&#10;	&#10;	&#10;	&#10;	&#10;	&#10;	&#10;	&#10;	&#10;	&#10;	&#10;	&#10;</g>&#10;&#10;</svg>
