<?xml version="1.0" encoding="UTF-8" standalone="no"?>
<!-- Generator: Adobe Illustrator 16.0.0, SVG Export Plug-In . SVG Version: 6.00 Build 0)  -->

<svg
   version="1.1"
   x="0px"
   y="0px"
   width="42.430054"
   height="155.58704"
   viewBox="0 0 42.430052 155.58704"
   enable-background="new 0 0 2266.018 1821.959"
   xml:space="preserve"
   id="svg94"
   sodipodi:docname="프로젝트 작업.svg"
   inkscape:version="1.3 (0e150ed6c4, 2023-07-21)"
   xmlns:inkscape="http://www.inkscape.org/namespaces/inkscape"
   xmlns:sodipodi="http://sodipodi.sourceforge.net/DTD/sodipodi-0.dtd"
   xmlns="http://www.w3.org/2000/svg"
   xmlns:svg="http://www.w3.org/2000/svg"><defs
   id="defs94" /><sodipodi:namedview
   id="namedview94"
   pagecolor="#ffffff"
   bordercolor="#000000"
   borderopacity="0.25"
   inkscape:showpageshadow="2"
   inkscape:pageopacity="0.0"
   inkscape:pagecheckerboard="0"
   inkscape:deskcolor="#d1d1d1"
   inkscape:zoom="0.30155562"
   inkscape:cx="771.00205"
   inkscape:cy="1029.6608"
   inkscape:window-width="1920"
   inkscape:window-height="991"
   inkscape:window-x="-9"
   inkscape:window-y="-9"
   inkscape:window-maximized="1"
   inkscape:current-layer="g3" />&#10;&#10;&#10;&#10;<g
   id="레이어_3"
   transform="translate(-1606.4899,-855.91296)">&#10;	&#10;	&#10;	&#10;	&#10;	&#10;	<g
   id="g14"
   inkscape:export-filename="c5.svg"
   inkscape:export-xdpi="96"
   inkscape:export-ydpi="96">&#10;		&#10;		&#10;		<g
   id="g115"><path
     fill="#ac78a8"
     d="m 1632.328,1011.5 c -1.075,0 -2.169,-0.232 -3.206,-0.724 l -12.667,-6 c -2.618,-1.241 -4.288,-3.88 -4.288,-6.778 v -56.667 c 0,-0.71 0.101,-1.415 0.299,-2.097 l 15.035,-51.643 v -16.924 c 0,-4.143 3.357,-7.5 7.5,-7.5 4.144,0 7.5,3.357 7.5,7.5 v 17.993 c 0,0.71 -0.101,1.415 -0.299,2.097 l -15.035,51.643 v 50.852 l 8.378,3.968 c 3.743,1.773 5.34,6.245 3.566,9.989 -1.282,2.706 -3.974,4.291 -6.783,4.291 z"
     id="path12" /><circle
     fill="#ffffff"
     stroke="#ac78a8"
     stroke-width="7"
     stroke-miterlimit="10"
     cx="1635.499"
     cy="869.33398"
     r="9.9209995"
     id="circle13" /><circle
     fill="#ffffff"
     stroke="#ac78a8"
     stroke-width="7"
     stroke-miterlimit="10"
     cx="1619.911"
     cy="942.66803"
     r="9.9209995"
     id="circle14" /></g>&#10;	</g>&#10;	&#10;	&#10;	&#10;	&#10;	&#10;	&#10;	&#10;	&#10;	&#10;	&#10;	&#10;	&#10;	&#10;	&#10;	&#10;	&#10;</g>&#10;&#10;</svg>
