<?xml version="1.0" encoding="UTF-8" standalone="no"?>
<!-- Generator: Adobe Illustrator 16.0.0, SVG Export Plug-In . SVG Version: 6.00 Build 0)  -->

<svg
   version="1.1"
   x="0px"
   y="0px"
   width="139.34741"
   height="259.50897"
   viewBox="0 0 139.34741 259.50897"
   enable-background="new 0 0 2266.018 1821.959"
   xml:space="preserve"
   id="svg94"
   sodipodi:docname="프로젝트 작업.svg"
   inkscape:version="1.3 (0e150ed6c4, 2023-07-21)"
   xmlns:inkscape="http://www.inkscape.org/namespaces/inkscape"
   xmlns:sodipodi="http://sodipodi.sourceforge.net/DTD/sodipodi-0.dtd"
   xmlns="http://www.w3.org/2000/svg"
   xmlns:svg="http://www.w3.org/2000/svg"><defs
   id="defs94" /><sodipodi:namedview
   id="namedview94"
   pagecolor="#ffffff"
   bordercolor="#000000"
   borderopacity="0.25"
   inkscape:showpageshadow="2"
   inkscape:pageopacity="0.0"
   inkscape:pagecheckerboard="0"
   inkscape:deskcolor="#d1d1d1"
   inkscape:zoom="0.30155562"
   inkscape:cx="771.00205"
   inkscape:cy="1029.6608"
   inkscape:window-width="1920"
   inkscape:window-height="991"
   inkscape:window-x="-9"
   inkscape:window-y="-9"
   inkscape:window-maximized="1"
   inkscape:current-layer="g3" />&#10;&#10;&#10;&#10;<g
   id="레이어_3"
   transform="translate(-1781.1551,-946.169)">&#10;	&#10;	&#10;	&#10;	&#10;	&#10;	&#10;	&#10;	<g
   id="g18"
   inkscape:export-filename="c7.svg"
   inkscape:export-xdpi="96"
   inkscape:export-ydpi="96">&#10;		&#10;		&#10;		<g
   id="g113"><path
     fill="#00a5cd"
     d="m 1796.327,1200.835 c -1.448,0 -2.914,-0.419 -4.203,-1.294 -3.428,-2.325 -4.321,-6.989 -1.996,-10.417 l 111.833,-164.873 -40.943,-20.19 c -3.016,-1.486 -4.673,-4.799 -4.055,-8.104 l 6.667,-35.678 c 0.761,-4.072 4.683,-6.753 8.75,-5.994 4.07,0.761 6.755,4.678 5.994,8.75 l -5.622,30.088 43.566,21.485 c 1.945,0.959 3.38,2.714 3.935,4.811 0.555,2.097 0.174,4.331 -1.044,6.126 l -116.667,172 c -1.45,2.138 -3.813,3.29 -6.215,3.29 z"
     id="path16" /><circle
     fill="#ffffff"
     stroke="#00a5cd"
     stroke-width="7"
     stroke-miterlimit="10"
     cx="1869.741"
     cy="959.59003"
     r="9.9209995"
     id="circle17" /><circle
     fill="#ffffff"
     stroke="#00a5cd"
     stroke-width="7"
     stroke-miterlimit="10"
     cx="1794.576"
     cy="1192.257"
     r="9.9209995"
     id="circle18" /></g>&#10;	</g>&#10;	&#10;	&#10;	&#10;	&#10;	&#10;	&#10;	&#10;	&#10;	&#10;	&#10;	&#10;	&#10;	&#10;	&#10;</g>&#10;&#10;</svg>
