<?xml version="1.0" encoding="UTF-8" standalone="no"?>
<!-- Generator: Adobe Illustrator 16.0.0, SVG Export Plug-In . SVG Version: 6.00 Build 0)  -->

<svg
   version="1.1"
   x="0px"
   y="0px"
   width="182.25037"
   height="191.59302"
   viewBox="0 0 182.25036 191.59302"
   enable-background="new 0 0 2266.018 1821.959"
   xml:space="preserve"
   id="svg94"
   sodipodi:docname="프로젝트 작업.svg"
   inkscape:version="1.3 (0e150ed6c4, 2023-07-21)"
   xmlns:inkscape="http://www.inkscape.org/namespaces/inkscape"
   xmlns:sodipodi="http://sodipodi.sourceforge.net/DTD/sodipodi-0.dtd"
   xmlns="http://www.w3.org/2000/svg"
   xmlns:svg="http://www.w3.org/2000/svg"><defs
   id="defs94" /><sodipodi:namedview
   id="namedview94"
   pagecolor="#ffffff"
   bordercolor="#000000"
   borderopacity="0.25"
   inkscape:showpageshadow="2"
   inkscape:pageopacity="0.0"
   inkscape:pagecheckerboard="0"
   inkscape:deskcolor="#d1d1d1"
   inkscape:zoom="0.30155562"
   inkscape:cx="771.00205"
   inkscape:cy="1029.6608"
   inkscape:window-width="1920"
   inkscape:window-height="991"
   inkscape:window-x="-9"
   inkscape:window-y="-9"
   inkscape:window-maximized="1"
   inkscape:current-layer="g3" />&#10;&#10;&#10;&#10;<g
   id="레이어_3"
   transform="translate(-1616.9179,-1192.577)">&#10;	&#10;	&#10;	&#10;	&#10;	&#10;	&#10;	&#10;	&#10;	<g
   id="g20"
   inkscape:export-filename="c8.svg"
   inkscape:export-xdpi="96"
   inkscape:export-ydpi="96">&#10;		&#10;		&#10;		<g
   id="g112"><path
     fill="#2a434a"
     d="m 1748.516,1384.17 h -58.181 c -2.943,0 -5.615,-1.722 -6.83,-4.402 l -23.679,-52.212 -27.098,3.872 c -4.091,0.581 -7.899,-2.263 -8.485,-6.363 -0.586,-4.102 2.265,-7.899 6.364,-8.485 l 32.666,-4.667 c 3.308,-0.473 6.515,1.292 7.892,4.327 l 24.004,52.932 h 48.21 l 39.298,-101.387 -11.663,-9.234 c -1.502,-1.188 -2.492,-2.907 -2.769,-4.804 l -6.666,-46 c -0.595,-4.1 2.248,-7.904 6.347,-8.499 4.104,-0.593 7.904,2.247 8.499,6.347 l 6.238,43.049 13.66,10.814 c 2.578,2.041 3.526,5.524 2.339,8.591 l -43.153,111.334 c -1.119,2.885 -3.899,4.787 -6.993,4.787 z"
     id="path18" /><circle
     fill="#ffffff"
     stroke="#2a434a"
     stroke-width="7"
     stroke-miterlimit="10"
     cx="1769.005"
     cy="1205.998"
     r="9.9209995"
     id="circle19" /><circle
     fill="#ffffff"
     stroke="#2a434a"
     stroke-width="7"
     stroke-miterlimit="10"
     cx="1630.339"
     cy="1323.998"
     r="9.9209995"
     id="circle20" /></g>&#10;	</g>&#10;	&#10;	&#10;	&#10;	&#10;	&#10;	&#10;	&#10;	&#10;	&#10;	&#10;	&#10;	&#10;	&#10;</g>&#10;&#10;</svg>
