<?xml version="1.0" encoding="UTF-8" standalone="no"?>
<!-- Generator: Adobe Illustrator 16.0.0, SVG Export Plug-In . SVG Version: 6.00 Build 0)  -->

<svg
   version="1.1"
   x="0px"
   y="0px"
   width="129.50806"
   height="132.254"
   viewBox="0 0 129.50805 132.254"
   enable-background="new 0 0 2266.018 1821.959"
   xml:space="preserve"
   id="svg94"
   sodipodi:docname="프로젝트 작업.svg"
   inkscape:version="1.3 (0e150ed6c4, 2023-07-21)"
   xmlns:inkscape="http://www.inkscape.org/namespaces/inkscape"
   xmlns:sodipodi="http://sodipodi.sourceforge.net/DTD/sodipodi-0.dtd"
   xmlns="http://www.w3.org/2000/svg"
   xmlns:svg="http://www.w3.org/2000/svg"><defs
   id="defs94" /><sodipodi:namedview
   id="namedview94"
   pagecolor="#ffffff"
   bordercolor="#000000"
   borderopacity="0.25"
   inkscape:showpageshadow="2"
   inkscape:pageopacity="0.0"
   inkscape:pagecheckerboard="0"
   inkscape:deskcolor="#d1d1d1"
   inkscape:zoom="0.30155562"
   inkscape:cx="771.00205"
   inkscape:cy="1029.6608"
   inkscape:window-width="1920"
   inkscape:window-height="991"
   inkscape:window-x="-9"
   inkscape:window-y="-9"
   inkscape:window-maximized="1"
   inkscape:current-layer="g3" />&#10;&#10;&#10;&#10;<g
   id="레이어_3"
   transform="translate(-1384.4119,-233.246)">&#10;	&#10;	<g
   id="g6"
   inkscape:export-filename="c1.svg"
   inkscape:export-xdpi="96"
   inkscape:export-ydpi="96">&#10;		&#10;		&#10;		<g
   id="g98"><g
     id="g119"><path
       fill="#dd6119"
       d="m 1474.999,365.5 c -0.838,0 -1.681,-0.14 -2.492,-0.426 -2.436,-0.858 -4.257,-2.908 -4.823,-5.426 l -22.603,-100.354 -17.922,11.947 c -2.644,1.764 -6.114,1.668 -8.66,-0.24 l -23.998,-18 c -3.313,-2.485 -3.985,-7.187 -1.5,-10.5 2.484,-3.313 7.188,-3.985 10.5,-1.5 l 19.754,14.816 22.585,-15.056 c 2.056,-1.37 4.653,-1.641 6.945,-0.723 2.293,0.918 3.988,2.906 4.53,5.315 l 22.374,99.339 17.051,-13.554 c 3.242,-2.578 7.96,-2.039 10.538,1.204 2.577,3.243 2.038,7.96 -1.204,10.538 l -26.407,20.992 c -1.348,1.069 -2.996,1.628 -4.668,1.628 z"
       id="path5" /><circle
       fill="#ffffff"
       stroke="#dd6119"
       stroke-width="7"
       stroke-miterlimit="10"
       cx="1397.833"
       cy="246.66701"
       r="9.9209995"
       id="circle5" /><circle
       fill="#ffffff"
       stroke="#dd6119"
       stroke-width="7"
       stroke-miterlimit="10"
       cx="1500.499"
       cy="337.33301"
       r="9.9209995"
       id="circle6" /></g></g>&#10;	</g>&#10;	&#10;	&#10;	&#10;	&#10;	&#10;	&#10;	&#10;	&#10;	&#10;	&#10;	&#10;	&#10;	&#10;	&#10;	&#10;	&#10;	&#10;	&#10;	&#10;	&#10;</g>&#10;&#10;</svg>
