<?xml version="1.0" encoding="UTF-8" standalone="no"?>
<!-- Generator: Adobe Illustrator 16.0.0, SVG Export Plug-In . SVG Version: 6.00 Build 0)  -->

<svg
   version="1.1"
   x="0px"
   y="0px"
   width="147.96307"
   height="68.51709"
   viewBox="0 0 147.96307 68.51709"
   enable-background="new 0 0 2266.018 1821.959"
   xml:space="preserve"
   id="svg94"
   sodipodi:docname="프로젝트 작업.svg"
   inkscape:version="1.3 (0e150ed6c4, 2023-07-21)"
   xmlns:inkscape="http://www.inkscape.org/namespaces/inkscape"
   xmlns:sodipodi="http://sodipodi.sourceforge.net/DTD/sodipodi-0.dtd"
   xmlns="http://www.w3.org/2000/svg"
   xmlns:svg="http://www.w3.org/2000/svg"><defs
   id="defs94" /><sodipodi:namedview
   id="namedview94"
   pagecolor="#ffffff"
   bordercolor="#000000"
   borderopacity="0.25"
   inkscape:showpageshadow="2"
   inkscape:pageopacity="0.0"
   inkscape:pagecheckerboard="0"
   inkscape:deskcolor="#d1d1d1"
   inkscape:zoom="0.30155562"
   inkscape:cx="771.00205"
   inkscape:cy="1029.6608"
   inkscape:window-width="1920"
   inkscape:window-height="991"
   inkscape:window-x="-9"
   inkscape:window-y="-9"
   inkscape:window-maximized="1"
   inkscape:current-layer="g3" />&#10;&#10;&#10;&#10;<g
   id="레이어_3"
   transform="translate(-970.12301,-1375.329)">&#10;	&#10;	&#10;	&#10;	&#10;	&#10;	&#10;	&#10;	&#10;	&#10;	&#10;	&#10;	<g
   id="g26"
   inkscape:export-filename="c11.svg"
   inkscape:export-xdpi="96"
   inkscape:export-ydpi="96">&#10;		&#10;		&#10;		<g
   id="g109"><path
     fill="#8f1b86"
     d="m 1056.345,1439.502 c -2.149,10e-4 -4.268,-0.922 -5.736,-2.663 l -30.392,-36.021 -28.916,32.809 c -2.739,3.105 -7.479,3.405 -10.586,0.668 -3.107,-2.739 -3.406,-7.479 -0.668,-10.586 l 34.667,-39.333 c 1.442,-1.637 3.56,-2.56 5.708,-2.541 2.182,0.024 4.243,0.996 5.65,2.663 l 31.896,37.804 21.38,-12.737 -2.383,-12.863 c -0.688,-3.709 1.487,-7.353 5.079,-8.507 l 18.667,-6 c 3.942,-1.266 8.168,0.902 9.437,4.847 1.268,3.943 -0.902,8.168 -4.846,9.436 l -12.387,3.98 2.132,11.513 c 0.571,3.086 -0.84,6.202 -3.535,7.809 l -31.333,18.668 c -1.197,0.709 -2.522,1.054 -3.834,1.054 z"
     id="path24" /><circle
     fill="#ffffff"
     stroke="#8f1b86"
     stroke-width="7"
     stroke-miterlimit="10"
     cx="1104.665"
     cy="1388.75"
     r="9.9209995"
     id="circle25" /><circle
     fill="#ffffff"
     stroke="#8f1b86"
     stroke-width="7"
     stroke-miterlimit="10"
     cx="983.54401"
     cy="1430.425"
     r="9.9209995"
     id="circle26" /></g>&#10;	</g>&#10;	&#10;	&#10;	&#10;	&#10;	&#10;	&#10;	&#10;	&#10;	&#10;	&#10;</g>&#10;&#10;</svg>
