<?xml version="1.0" encoding="UTF-8" standalone="no"?>
<!-- Generator: Adobe Illustrator 16.0.0, SVG Export Plug-In . SVG Version: 6.00 Build 0)  -->

<svg
   version="1.1"
   x="0px"
   y="0px"
   width="147.25299"
   height="361.89099"
   viewBox="0 0 147.25299 361.89099"
   enable-background="new 0 0 2266.018 1821.959"
   xml:space="preserve"
   id="svg94"
   sodipodi:docname="프로젝트 작업.svg"
   inkscape:version="1.3 (0e150ed6c4, 2023-07-21)"
   xmlns:inkscape="http://www.inkscape.org/namespaces/inkscape"
   xmlns:sodipodi="http://sodipodi.sourceforge.net/DTD/sodipodi-0.dtd"
   xmlns="http://www.w3.org/2000/svg"
   xmlns:svg="http://www.w3.org/2000/svg"><defs
   id="defs94" /><sodipodi:namedview
   id="namedview94"
   pagecolor="#ffffff"
   bordercolor="#000000"
   borderopacity="0.25"
   inkscape:showpageshadow="2"
   inkscape:pageopacity="0.0"
   inkscape:pagecheckerboard="0"
   inkscape:deskcolor="#d1d1d1"
   inkscape:zoom="0.30155562"
   inkscape:cx="771.00205"
   inkscape:cy="1029.6608"
   inkscape:window-width="1920"
   inkscape:window-height="991"
   inkscape:window-x="-9"
   inkscape:window-y="-9"
   inkscape:window-maximized="1"
   inkscape:current-layer="g3" />&#10;&#10;&#10;&#10;<g
   id="레이어_3"
   transform="translate(-596.24703,-928.71374)">&#10;	&#10;	&#10;	&#10;	&#10;	&#10;	&#10;	&#10;	&#10;	&#10;	&#10;	&#10;	&#10;	&#10;	&#10;	<g
   id="g106"
   inkscape:export-filename="c14.svg"
   inkscape:export-xdpi="96"
   inkscape:export-ydpi="96"><path
     fill="#f77074"
     d="m 652.999,1282.6058 c -0.838,0 -1.688,-0.142 -2.521,-0.438 -3.901,-1.395 -5.934,-5.687 -4.541,-9.587 l 25,-70 c 0.319,-0.895 0.806,-1.72 1.433,-2.433 l 20.132,-22.875 v -40.169 c 0,-2.765 1.521,-5.306 3.957,-6.611 l 24.625,-13.19 6.975,-51.434 L 604.35,946.82977 c -2.985,-2.872 -3.076,-7.619 -0.204,-10.604 2.873,-2.985 7.619,-3.077 10.604,-0.204 L 741.2,1057.7008 c 1.726,1.659 2.555,4.041 2.231,6.412 l -8,59 c -0.323,2.384 -1.771,4.468 -3.891,5.604 l -24.041,12.877 v 38.51 c 0,1.824 -0.664,3.586 -1.869,4.955 l -21.051,23.921 -24.517,68.646 c -1.094,3.068 -3.983,4.98 -7.063,4.98 z"
     id="path30" /><circle
     fill="#ffffff"
     stroke="#f77074"
     stroke-width="7"
     stroke-miterlimit="10"
     cx="652.66803"
     cy="1277.1837"
     r="9.9209995"
     id="circle31" /><circle
     fill="#ffffff"
     stroke="#f77074"
     stroke-width="7"
     stroke-miterlimit="10"
     cx="609.66803"
     cy="942.13477"
     r="9.9209995"
     id="circle32" /></g>&#10;	&#10;	&#10;	&#10;	&#10;	&#10;	&#10;	&#10;</g>&#10;&#10;</svg>
