<?xml version="1.0" encoding="UTF-8" standalone="no"?>
<!-- Generator: Adobe Illustrator 16.0.0, SVG Export Plug-In . SVG Version: 6.00 Build 0)  -->

<svg
   version="1.1"
   x="0px"
   y="0px"
   width="90.510071"
   height="129.60803"
   viewBox="0 0 90.510068 129.60803"
   enable-background="new 0 0 2266.018 1821.959"
   xml:space="preserve"
   id="svg94"
   sodipodi:docname="프로젝트 작업.svg"
   inkscape:version="1.3 (0e150ed6c4, 2023-07-21)"
   xmlns:inkscape="http://www.inkscape.org/namespaces/inkscape"
   xmlns:sodipodi="http://sodipodi.sourceforge.net/DTD/sodipodi-0.dtd"
   xmlns="http://www.w3.org/2000/svg"
   xmlns:svg="http://www.w3.org/2000/svg"><defs
   id="defs94" /><sodipodi:namedview
   id="namedview94"
   pagecolor="#ffffff"
   bordercolor="#000000"
   borderopacity="0.25"
   inkscape:showpageshadow="2"
   inkscape:pageopacity="0.0"
   inkscape:pagecheckerboard="0"
   inkscape:deskcolor="#d1d1d1"
   inkscape:zoom="0.30155562"
   inkscape:cx="771.00205"
   inkscape:cy="1029.6608"
   inkscape:window-width="1920"
   inkscape:window-height="991"
   inkscape:window-x="-9"
   inkscape:window-y="-9"
   inkscape:window-maximized="1"
   inkscape:current-layer="g3" />&#10;&#10;&#10;&#10;<g
   id="레이어_3"
   transform="translate(-854.246,-521)">&#10;	&#10;	&#10;	&#10;	&#10;	&#10;	&#10;	&#10;	&#10;	&#10;	&#10;	&#10;	&#10;	&#10;	&#10;	&#10;	&#10;	&#10;	<g
   id="g38"
   inkscape:export-filename="c17.svg"
   inkscape:export-xdpi="96"
   inkscape:export-ydpi="96">&#10;		&#10;		&#10;		<g
   id="g103"><path
     fill="#68225e"
     d="m 934.506,642.625 c -3.696,0.099 -6.986,-2.549 -7.595,-6.299 l -7.944,-49.057 c -21.989,-18.545 -46.315,-38.227 -52.529,-42 -0.31,-0.054 -0.619,-0.127 -0.929,-0.221 -3.963,-1.204 -6.199,-5.394 -4.995,-9.356 0.754,-2.479 2.689,-4.4 5.182,-5.134 4.157,-1.229 7.188,0.487 17.046,7.942 5.021,3.795 11.766,9.138 20.041,15.877 14.027,11.423 27.851,23.11 27.988,23.228 1.366,1.154 2.273,2.762 2.56,4.526 l 8.389,51.794 c 0.663,4.089 -2.115,7.94 -6.203,8.604 -0.341,0.055 -0.678,0.087 -1.011,0.096 z"
     id="path36" /><circle
     fill="#ffffff"
     stroke="#68225e"
     stroke-width="7"
     stroke-miterlimit="10"
     cx="867.66699"
     cy="534.42102"
     r="9.9209995"
     id="circle37" /><circle
     fill="#ffffff"
     stroke="#68225e"
     stroke-width="7"
     stroke-miterlimit="10"
     cx="931.33502"
     cy="637.18701"
     r="9.9209995"
     id="circle38" /></g>&#10;	</g>&#10;	&#10;	&#10;	&#10;	&#10;</g>&#10;&#10;</svg>
