<?xml version="1.0" encoding="UTF-8" standalone="no"?>
<!-- Generator: Adobe Illustrator 16.0.0, SVG Export Plug-In . SVG Version: 6.00 Build 0)  -->

<svg
   version="1.1"
   x="0px"
   y="0px"
   width="130.84204"
   height="118.17505"
   viewBox="0 0 130.84204 118.17505"
   enable-background="new 0 0 2266.018 1821.959"
   xml:space="preserve"
   id="svg94"
   sodipodi:docname="프로젝트 작업.svg"
   inkscape:version="1.3 (0e150ed6c4, 2023-07-21)"
   xmlns:inkscape="http://www.inkscape.org/namespaces/inkscape"
   xmlns:sodipodi="http://sodipodi.sourceforge.net/DTD/sodipodi-0.dtd"
   xmlns="http://www.w3.org/2000/svg"
   xmlns:svg="http://www.w3.org/2000/svg"><defs
   id="defs94" /><sodipodi:namedview
   id="namedview94"
   pagecolor="#ffffff"
   bordercolor="#000000"
   borderopacity="0.25"
   inkscape:showpageshadow="2"
   inkscape:pageopacity="0.0"
   inkscape:pagecheckerboard="0"
   inkscape:deskcolor="#d1d1d1"
   inkscape:zoom="0.30155562"
   inkscape:cx="771.00205"
   inkscape:cy="1029.6608"
   inkscape:window-width="1920"
   inkscape:window-height="991"
   inkscape:window-x="-9"
   inkscape:window-y="-9"
   inkscape:window-maximized="1"
   inkscape:current-layer="g3" />&#10;&#10;&#10;&#10;<g
   id="레이어_3"
   transform="translate(-1116.591,-550.11895)">&#10;	&#10;	&#10;	&#10;	&#10;	&#10;	&#10;	&#10;	&#10;	&#10;	&#10;	&#10;	&#10;	&#10;	&#10;	&#10;	&#10;	&#10;	&#10;	&#10;	<g
   id="g42"
   inkscape:export-filename="c19.svg"
   inkscape:export-xdpi="96"
   inkscape:export-ydpi="96">&#10;		&#10;		&#10;		<g
   id="g101"><path
     fill="#45937b"
     d="m 1133.016,662.501 c -2.468,0 -4.884,-1.217 -6.317,-3.447 -2.238,-3.484 -1.229,-8.125 2.257,-10.364 l 29.575,-19 c 0.521,-0.332 1.079,-0.602 1.665,-0.799 l 66.306,-22.281 V 564 c 0,-4.143 3.356,-7.5 7.5,-7.5 4.143,0 7.5,3.357 7.5,7.5 v 48 c 0,3.222 -2.059,6.083 -5.111,7.109 l -70.533,23.703 -28.793,18.497 c -1.256,0.807 -2.663,1.192 -4.049,1.192 z"
     id="path40" /><circle
     fill="#ffffff"
     stroke="#45937b"
     stroke-width="7"
     stroke-miterlimit="10"
     cx="1130.012"
     cy="654.87299"
     r="9.9209995"
     id="circle41" /><circle
     fill="#ffffff"
     stroke="#45937b"
     stroke-width="7"
     stroke-miterlimit="10"
     cx="1234.012"
     cy="563.53998"
     r="9.9209995"
     id="circle42" /></g>&#10;	</g>&#10;	&#10;	&#10;</g>&#10;&#10;</svg>
