<?xml version="1.0" encoding="UTF-8" standalone="no"?>
<!-- Generator: Adobe Illustrator 16.0.0, SVG Export Plug-In . SVG Version: 6.00 Build 0)  -->

<svg
   version="1.1"
   x="0px"
   y="0px"
   width="46.93396"
   height="188.84204"
   viewBox="0 0 46.933959 188.84204"
   enable-background="new 0 0 2266.018 1821.959"
   xml:space="preserve"
   id="svg94"
   sodipodi:docname="프로젝트 작업.svg"
   inkscape:version="1.3 (0e150ed6c4, 2023-07-21)"
   xmlns:inkscape="http://www.inkscape.org/namespaces/inkscape"
   xmlns:sodipodi="http://sodipodi.sourceforge.net/DTD/sodipodi-0.dtd"
   xmlns="http://www.w3.org/2000/svg"
   xmlns:svg="http://www.w3.org/2000/svg"><defs
   id="defs94" /><sodipodi:namedview
   id="namedview94"
   pagecolor="#ffffff"
   bordercolor="#000000"
   borderopacity="0.25"
   inkscape:showpageshadow="2"
   inkscape:pageopacity="0.0"
   inkscape:pagecheckerboard="0"
   inkscape:deskcolor="#d1d1d1"
   inkscape:zoom="0.30155562"
   inkscape:cx="771.00205"
   inkscape:cy="1029.6608"
   inkscape:window-width="1920"
   inkscape:window-height="991"
   inkscape:window-x="-9"
   inkscape:window-y="-9"
   inkscape:window-maximized="1"
   inkscape:current-layer="g3" />&#10;&#10;&#10;&#10;<g
   id="레이어_3"
   transform="translate(-1212.4981,-368.461)">&#10;	&#10;	&#10;	&#10;	&#10;	&#10;	&#10;	&#10;	&#10;	&#10;	&#10;	&#10;	&#10;	&#10;	&#10;	&#10;	&#10;	&#10;	&#10;	&#10;	&#10;	<g
   id="g44"
   inkscape:export-filename="c20.svg"
   inkscape:export-xdpi="96"
   inkscape:export-ydpi="96">&#10;		&#10;		&#10;		<g
   id="g100"><path
     fill="#20615d"
     d="m 1233.995,550.502 c -3.294,0 -6.313,-2.187 -7.229,-5.517 l -14,-51 c -0.178,-0.646 -0.268,-1.314 -0.268,-1.985 v -29 c 0,-2.394 1.143,-4.644 3.074,-6.056 l 20.549,-15.018 -14.609,-25.162 c -1.371,-2.362 -1.351,-5.283 0.055,-7.625 l 18,-30 c 2.131,-3.552 6.739,-4.705 10.29,-2.572 3.552,2.131 4.704,6.738 2.573,10.29 l -15.723,26.204 15.776,27.172 c 1.927,3.317 1.037,7.557 -2.062,9.82 l -22.926,16.753 v 24.182 l 13.732,50.024 c 1.097,3.994 -1.253,8.121 -5.247,9.219 -0.66,0.184 -1.329,0.271 -1.985,0.271 z"
     id="path42" /><circle
     fill="#ffffff"
     stroke="#20615d"
     stroke-width="7"
     stroke-miterlimit="10"
     cx="1233.345"
     cy="543.88202"
     r="9.9209995"
     id="circle43" /><circle
     fill="#ffffff"
     stroke="#20615d"
     stroke-width="7"
     stroke-miterlimit="10"
     cx="1246.011"
     cy="381.88199"
     r="9.9209995"
     id="circle44" /></g>&#10;	</g>&#10;	&#10;</g>&#10;&#10;</svg>
