<?xml version="1.0" encoding="UTF-8" standalone="no"?>
<!-- Generator: Adobe Illustrator 16.0.0, SVG Export Plug-In . SVG Version: 6.00 Build 0)  -->

<svg
   version="1.1"
   x="0px"
   y="0px"
   width="137.50903"
   height="160.842"
   viewBox="0 0 137.50903 160.842"
   enable-background="new 0 0 2266.018 1821.959"
   xml:space="preserve"
   id="svg94"
   sodipodi:docname="프로젝트 작업.svg"
   inkscape:version="1.3 (0e150ed6c4, 2023-07-21)"
   xmlns:inkscape="http://www.inkscape.org/namespaces/inkscape"
   xmlns:sodipodi="http://sodipodi.sourceforge.net/DTD/sodipodi-0.dtd"
   xmlns="http://www.w3.org/2000/svg"
   xmlns:svg="http://www.w3.org/2000/svg"><defs
   id="defs94" /><sodipodi:namedview
   id="namedview94"
   pagecolor="#ffffff"
   bordercolor="#000000"
   borderopacity="0.25"
   inkscape:showpageshadow="2"
   inkscape:pageopacity="0.0"
   inkscape:pagecheckerboard="0"
   inkscape:deskcolor="#d1d1d1"
   inkscape:zoom="0.30155562"
   inkscape:cx="771.00205"
   inkscape:cy="1029.6608"
   inkscape:window-width="1920"
   inkscape:window-height="991"
   inkscape:window-x="-9"
   inkscape:window-y="-9"
   inkscape:window-maximized="1"
   inkscape:current-layer="g3" />&#10;&#10;&#10;&#10;<g
   id="레이어_3"
   transform="translate(-1258.5899,-249.79399)">&#10;	&#10;	&#10;	&#10;	&#10;	&#10;	&#10;	&#10;	&#10;	&#10;	&#10;	&#10;	&#10;	&#10;	&#10;	&#10;	&#10;	&#10;	&#10;	&#10;	&#10;	&#10;	<g
   id="g46"
   inkscape:export-filename="c21.svg"
   inkscape:export-xdpi="96"
   inkscape:export-ydpi="96">&#10;		&#10;		&#10;		<g
   id="g99"><path
     fill="#019795"
     d="m 1304.999,404.5 h -31 c -4.143,0 -7.5,-3.358 -7.5,-7.5 0,-4.142 3.357,-7.5 7.5,-7.5 h 26.038 l 31.26,-73.55 -4.732,-35.971 c -0.478,-3.616 1.718,-7.049 5.198,-8.137 l 48,-15 c 3.963,-1.234 8.161,0.969 9.396,4.921 1.236,3.954 -0.968,8.161 -4.921,9.396 l -41.979,13.118 4.177,31.745 c 0.175,1.328 -0.01,2.679 -0.533,3.912 l -34,80 c -1.177,2.768 -3.894,4.566 -6.904,4.566 z"
     id="path44" /><circle
     fill="#ffffff"
     stroke="#019795"
     stroke-width="7"
     stroke-miterlimit="10"
     cx="1272.011"
     cy="397.215"
     r="9.9209995"
     id="circle45" /><circle
     fill="#ffffff"
     stroke="#019795"
     stroke-width="7"
     stroke-miterlimit="10"
     cx="1382.678"
     cy="263.215"
     r="9.9209995"
     id="circle46" /></g>&#10;	</g>&#10;</g>&#10;&#10;</svg>
