<?xml version="1.0" encoding="UTF-8" standalone="no"?>
<!-- Generator: Adobe Illustrator 16.0.0, SVG Export Plug-In . SVG Version: 6.00 Build 0)  -->

<svg
   version="1.1"
   x="0px"
   y="0px"
   width="246.17603"
   height="142.35455"
   viewBox="0 0 246.17602 142.35455"
   enable-background="new 0 0 2266.018 1821.959"
   xml:space="preserve"
   id="svg94"
   sodipodi:docname="프로젝트 작업.svg"
   inkscape:version="1.3 (0e150ed6c4, 2023-07-21)"
   xmlns:inkscape="http://www.inkscape.org/namespaces/inkscape"
   xmlns:sodipodi="http://sodipodi.sourceforge.net/DTD/sodipodi-0.dtd"
   xmlns="http://www.w3.org/2000/svg"
   xmlns:svg="http://www.w3.org/2000/svg"><defs
   id="defs94" /><sodipodi:namedview
   id="namedview94"
   pagecolor="#ffffff"
   bordercolor="#000000"
   borderopacity="0.25"
   inkscape:showpageshadow="2"
   inkscape:pageopacity="0.0"
   inkscape:pagecheckerboard="0"
   inkscape:deskcolor="#d1d1d1"
   inkscape:zoom="0.30155562"
   inkscape:cx="771.00205"
   inkscape:cy="1029.6608"
   inkscape:window-width="1920"
   inkscape:window-height="991"
   inkscape:window-x="-9"
   inkscape:window-y="-9"
   inkscape:window-maximized="1"
   inkscape:current-layer="g3" />&#10;&#10;&#10;&#10;<g
   id="레이어_3"
   transform="translate(-1637.653,-890.4804)">&#10;	&#10;	&#10;	&#10;	&#10;	&#10;	&#10;	<g
   id="g16"
   inkscape:export-filename="c6.svg"
   inkscape:export-xdpi="96"
   inkscape:export-ydpi="96">&#10;		&#10;		&#10;		<g
   id="g114"><path
     fill="#02718c"
     d="m 1715.004,1032.835 c -0.609,0 -1.227,-0.074 -1.839,-0.229 l -63.334,-16.003 c -4.017,-1.015 -6.448,-5.093 -5.435,-9.107 1.016,-4.018 5.1,-6.448 9.108,-5.436 l 57.215,14.457 24.765,-55.567 c 1.205,-2.705 3.89,-4.447 6.851,-4.447 h 11.136 l 11.5,-59.935 c 0.421,-2.197 1.802,-4.093 3.764,-5.166 1.963,-1.073 4.302,-1.218 6.38,-0.388 l 98.666,39.354 c 3.849,1.534 5.724,5.896 4.188,9.744 -1.534,3.848 -5.899,5.722 -9.744,4.188 l -90.232,-35.991 -10.957,57.104 c -0.678,3.533 -3.768,6.087 -7.364,6.087 h -12.466 l -25.352,56.886 c -1.23,2.755 -3.948,4.449 -6.85,4.449 z"
     id="path14" /><circle
     fill="#ffffff"
     stroke="#02718c"
     stroke-width="7"
     stroke-miterlimit="10"
     cx="1651.074"
     cy="1009.936"
     r="9.9209995"
     id="circle15" /><circle
     fill="#ffffff"
     stroke="#02718c"
     stroke-width="7"
     stroke-miterlimit="10"
     cx="1870.408"
     cy="936.60199"
     r="9.9209995"
     id="circle16" /></g>&#10;	</g>&#10;	&#10;	&#10;	&#10;	&#10;	&#10;	&#10;	&#10;	&#10;	&#10;	&#10;	&#10;	&#10;	&#10;	&#10;	&#10;</g>&#10;&#10;</svg>
