<?xml version="1.0" encoding="UTF-8" standalone="no"?>
<!-- Generator: Adobe Illustrator 16.0.0, SVG Export Plug-In . SVG Version: 6.00 Build 0)  -->

<svg
   version="1.1"
   x="0px"
   y="0px"
   width="290.34204"
   height="145.92493"
   viewBox="0 0 290.34203 145.92493"
   enable-background="new 0 0 2266.018 1821.959"
   xml:space="preserve"
   id="svg94"
   sodipodi:docname="프로젝트 작업.svg"
   inkscape:version="1.3 (0e150ed6c4, 2023-07-21)"
   xmlns:inkscape="http://www.inkscape.org/namespaces/inkscape"
   xmlns:sodipodi="http://sodipodi.sourceforge.net/DTD/sodipodi-0.dtd"
   xmlns="http://www.w3.org/2000/svg"
   xmlns:svg="http://www.w3.org/2000/svg"><defs
   id="defs94" /><sodipodi:namedview
   id="namedview94"
   pagecolor="#ffffff"
   bordercolor="#000000"
   borderopacity="0.25"
   inkscape:showpageshadow="2"
   inkscape:pageopacity="0.0"
   inkscape:pagecheckerboard="0"
   inkscape:deskcolor="#d1d1d1"
   inkscape:zoom="0.30155562"
   inkscape:cx="771.00205"
   inkscape:cy="1029.6608"
   inkscape:window-width="1920"
   inkscape:window-height="991"
   inkscape:window-x="-9"
   inkscape:window-y="-9"
   inkscape:window-maximized="1"
   inkscape:current-layer="g3" />&#10;&#10;&#10;&#10;<g
   id="레이어_3"
   transform="translate(-1343.583,-1325.577)">&#10;	&#10;	&#10;	&#10;	&#10;	&#10;	&#10;	&#10;	&#10;	&#10;	<g
   id="g22"
   inkscape:export-filename="c9.svg"
   inkscape:export-xdpi="96"
   inkscape:export-ydpi="96">&#10;		&#10;		&#10;		<g
   id="g111"><path
     fill="#35a64c"
     d="m 1379.672,1471.502 c -2.487,0 -4.854,-1.239 -6.26,-3.368 l -22,-33.333 c -2.28,-3.458 -1.329,-8.109 2.13,-10.392 3.453,-2.283 8.107,-1.329 10.391,2.129 l 19.219,29.119 12.209,-2.442 -6.438,-13.275 c -1.32,-2.725 -0.874,-5.977 1.133,-8.242 l 35.998,-40.667 c 1.402,-1.584 3.407,-2.502 5.521,-2.528 2.107,-0.075 4.143,0.841 5.583,2.389 l 14.798,15.895 42.823,-13.177 3.438,-29.798 c 0.341,-2.955 2.396,-5.43 5.236,-6.308 l 22.668,-7 c 2.314,-0.717 4.828,-0.268 6.755,1.197 l 13.536,10.301 53.396,3.521 13.12,-26.814 c 1.821,-3.721 6.313,-5.262 10.033,-3.439 3.721,1.819 5.262,6.312 3.44,10.031 l -15.332,31.333 c -1.337,2.732 -4.181,4.397 -7.229,4.188 l -60.668,-4 c -1.47,-0.097 -2.877,-0.623 -4.049,-1.515 l -12.264,-9.332 -14.306,4.418 -3.438,29.804 c -0.342,2.958 -2.399,5.434 -5.244,6.309 l -52,16 c -2.747,0.849 -5.736,0.047 -7.695,-2.058 l -12.371,-13.287 -27.208,30.736 8.486,17.5 c 1.013,2.09 1.001,4.529 -0.032,6.608 -1.032,2.079 -2.969,3.563 -5.245,4.02 l -26.666,5.335 c -0.488,0.094 -0.981,0.142 -1.468,0.142 z"
     id="path20" /><circle
     fill="#ffffff"
     stroke="#35a64c"
     stroke-width="7"
     stroke-miterlimit="10"
     cx="1620.504"
     cy="1338.998"
     r="9.9209995"
     id="circle21" /><circle
     fill="#ffffff"
     stroke="#35a64c"
     stroke-width="7"
     stroke-miterlimit="10"
     cx="1357.004"
     cy="1429.3311"
     r="9.9209995"
     id="circle22" /></g>&#10;	</g>&#10;	&#10;	&#10;	&#10;	&#10;	&#10;	&#10;	&#10;	&#10;	&#10;	&#10;	&#10;	&#10;</g>&#10;&#10;</svg>
