<?xml version="1.0" encoding="UTF-8" standalone="no"?>
<!-- Generator: Adobe Illustrator 16.0.0, SVG Export Plug-In . SVG Version: 6.00 Build 0)  -->

<svg
   version="1.1"
   x="0px"
   y="0px"
   width="211.56522"
   height="210.94768"
   viewBox="0 0 211.56521 210.94768"
   enable-background="new 0 0 2266.018 1821.959"
   xml:space="preserve"
   id="svg94"
   xmlns="http://www.w3.org/2000/svg"
   xmlns:svg="http://www.w3.org/2000/svg"><defs
   id="defs94" />&#10;&#10;&#10;&#10;&#10;<g
   id="레이어_5"
   transform="translate(-55.771757,-26.237774)">&#10;	<g
   id="g69">&#10;		<g
   id="g48">&#10;			<g
   id="g47">&#10;				<path
   d="m 87.671,185.32 c -8.083,11.202 -15.348,22.981 -21.58,35.313 -2.713,5.369 -1.462,11.923 3.958,15.098 4.949,2.899 12.387,1.406 15.098,-3.958 6.232,-12.331 13.497,-24.111 21.58,-35.313 3.527,-4.888 0.856,-12.278 -3.958,-15.098 -5.566,-3.261 -11.586,-0.909 -15.098,3.958 z"
   id="path46" />&#10;			</g>&#10;		</g>&#10;		<g
   id="g50">&#10;			<g
   id="g49">&#10;				<path
   d="m 209.745,190.552 c 7.214,17.75 20.985,28.218 39.587,32.231 5.875,1.267 11.914,-1.669 13.575,-7.708 1.526,-5.549 -1.826,-12.306 -7.708,-13.575 -10.747,-2.318 -19.849,-6.179 -24.172,-16.816 -2.263,-5.568 -7.259,-9.445 -13.575,-7.708 -5.286,1.456 -9.976,7.994 -7.707,13.576 z"
   id="path48" />&#10;			</g>&#10;		</g>&#10;		<g
   id="g52">&#10;			<g
   id="g51">&#10;				<path
   d="m 209.894,111.897 c 4.49,-5.268 18.123,-4.218 24.476,-1.787 8.876,3.397 12.679,-10.833 3.911,-14.188 -6.275,-2.402 -13.457,-2.621 -20.073,-1.939 -6.494,0.669 -14.262,2.281 -18.719,7.51 -6.116,7.176 4.24,17.636 10.405,10.404 z"
   id="path50" />&#10;			</g>&#10;		</g>&#10;		<g
   id="g54">&#10;			<g
   id="g53">&#10;				<path
   d="m 110.041,115.05 c -9.74,1.792 -16.529,-4.73 -21.854,-12.068 -5.515,-7.599 -18.289,-0.268 -12.705,7.426 9.582,13.203 21.48,21.958 38.471,18.83 9.322,-1.716 5.361,-15.895 -3.912,-14.188 z"
   id="path52" />&#10;			</g>&#10;		</g>&#10;		&#10;			<path
   fill="#ffe000"
   stroke="#000000"
   stroke-width="7.3568"
   stroke-linecap="round"
   stroke-linejoin="round"
   stroke-miterlimit="10"
   d="m 183.335,172.291 c 1.877,3.516 3.658,7.083 5.293,10.731 -0.118,-0.321 -0.24,-0.64 -0.367,-0.957 5.723,14.372 23.201,19.428 37.17,15.585 14.06,-3.867 26.652,-21.331 20.552,-36.199 -8.153,-19.88 -18.514,-32.526 -30.694,-50.19 -12.111,-17.563 -24.047,-35.349 -37.271,-52.096 -10.649,-13.488 -30.359,-9.163 -41.616,0 -7.98,6.496 -13.526,15.996 -17.839,25.211 -0.899,1.922 -1.726,3.879 -2.563,5.83 -0.539,1.254 -1.731,4.073 -2.636,6.216 -1.874,4.376 -3.976,8.607 -6.134,12.854 -11.143,21.927 -22.221,39.608 -28.245,63.548 -3.911,15.544 4.843,31.877 20.553,36.199 19.339,5.32 31.007,-8.928 37.619,-24.896 2.934,-7.086 7.439,-13.206 10.123,-20.45 3.081,-8.318 7.792,-15.849 11.768,-23.742 0.703,-1.395 1.397,-2.787 2.09,-4.18 1.445,2.054 2.897,4.104 4.329,6.167 5.97,10.117 12.338,20.013 17.868,30.369 z"
   id="path54" />&#10;		<g
   id="XMLID_1_">&#10;			<g
   id="g55">&#10;				<path
   fill="#ffffff"
   d="m 153.079,57.074 c 0.324,6.733 -0.744,14.782 -4.635,20.524 -3.167,4.673 -8.564,9.938 -14.516,7.401 -10.758,-4.578 -13.257,-20.944 -12.875,-31.053 0.248,-6.638 1.793,-14.439 5.913,-19.818 1.374,-1.793 3.281,-2.995 5.417,-3.643 4.921,-1.469 11.006,0.095 14.306,4.349 4.559,5.893 6.027,14.991 6.39,22.24 z"
   id="path55" />&#10;			</g>&#10;			<g
   id="g56">&#10;				&#10;					<path
   fill="none"
   stroke="#000000"
   stroke-width="7.3568"
   stroke-linecap="round"
   stroke-linejoin="round"
   stroke-miterlimit="10"
   d="m 132.383,30.484 c -2.136,0.648 -4.044,1.85 -5.417,3.643 -4.12,5.379 -5.665,13.181 -5.913,19.818 -0.381,10.109 2.118,26.475 12.875,31.053 5.951,2.537 11.349,-2.728 14.516,-7.401 3.891,-5.742 4.959,-13.791 4.635,-20.524 -0.363,-7.249 -1.832,-16.347 -6.39,-22.241 -3.3,-4.253 -9.385,-5.817 -14.306,-4.348 z"
   id="path56" />&#10;			</g>&#10;		</g>&#10;		<g
   id="XMLID_2_">&#10;			<g
   id="g57">&#10;				<path
   fill="#ffffff"
   d="m 183.242,57.564 c 0.324,6.733 -0.744,14.783 -4.635,20.524 -3.166,4.673 -8.564,9.938 -14.516,7.401 -10.758,-4.578 -13.257,-20.944 -12.875,-31.053 0.248,-6.638 1.793,-14.439 5.913,-19.818 1.373,-1.793 3.281,-2.995 5.417,-3.643 4.921,-1.469 11.006,0.095 14.306,4.349 4.559,5.893 6.027,14.992 6.39,22.24 z"
   id="path57" />&#10;			</g>&#10;			<g
   id="g58">&#10;				&#10;					<path
   fill="none"
   stroke="#000000"
   stroke-width="7.3568"
   stroke-linecap="round"
   stroke-linejoin="round"
   stroke-miterlimit="10"
   d="m 162.546,30.975 c -2.136,0.648 -4.044,1.85 -5.417,3.643 -4.12,5.379 -5.665,13.18 -5.913,19.818 -0.382,10.109 2.117,26.475 12.875,31.053 5.951,2.537 11.35,-2.728 14.516,-7.401 3.891,-5.742 4.959,-13.791 4.635,-20.524 -0.362,-7.248 -1.831,-16.347 -6.39,-22.241 -3.3,-4.253 -9.385,-5.817 -14.306,-4.348 z"
   id="path58" />&#10;			</g>&#10;		</g>&#10;		<g
   id="XMLID_5_">&#10;			<g
   id="g59">&#10;				<path
   d="m 139.917,46.915 c 3.133,1.796 4.107,6.954 3.955,10.259 -0.172,3.515 -0.63,8.635 -3.076,11.424 -3.248,3.726 -7.355,0.02 -9.59,-2.827 -3.515,-4.432 -2.464,-9.113 -0.019,-13.698 0.325,-0.63 0.707,-1.299 1.127,-1.968 1.7,-2.731 4.107,-5.215 7.603,-3.19 z"
   id="path59" />&#10;			</g>&#10;			<g
   id="g60">&#10;			</g>&#10;		</g>&#10;		<g
   id="XMLID_6_">&#10;			<g
   id="g61">&#10;				<path
   d="m 169.411,46.915 c 3.133,1.796 4.107,6.954 3.955,10.259 -0.172,3.515 -0.63,8.635 -3.076,11.424 -3.248,3.726 -7.355,0.02 -9.59,-2.827 -3.515,-4.432 -2.464,-9.113 -0.019,-13.698 0.325,-0.63 0.707,-1.299 1.127,-1.968 1.699,-2.731 4.107,-5.215 7.603,-3.19 z"
   id="path60" />&#10;			</g>&#10;			<g
   id="g62">&#10;			</g>&#10;		</g>&#10;		<g
   id="g64">&#10;			<g
   id="g63">&#10;				<path
   d="m 121.56,103.016 c 1.561,16.292 19.729,13.559 30.548,8.326 4.27,-2.065 0.538,-8.409 -3.713,-6.353 -5.035,2.436 -18.606,7.123 -19.479,-1.974 -0.448,-4.678 -7.809,-4.722 -7.356,0.001 z"
   id="path62" />&#10;			</g>&#10;		</g>&#10;		<g
   id="g66">&#10;			<path
   fill="#ffffff"
   d="M 83.41,108.343 C 96.583,96.926 79.019,76.728 64.968,87.265 49.16,99.561 70.237,120.637 83.41,108.343"
   id="path64" />&#10;			<g
   id="g65">&#10;				<path
   d="m 86.011,110.944 c 7.498,-6.934 7.142,-17.287 0.408,-24.604 -7.292,-7.923 -19.208,-6.999 -26.353,0.448 -6.61,6.888 -5.105,16.987 1.217,23.411 6.897,7.007 17.488,7.097 24.728,0.745 3.573,-3.135 -1.652,-8.317 -5.202,-5.202 -8.658,7.596 -23.416,-4.445 -15.541,-13.752 9.195,-10.867 26.134,3.957 15.541,13.752 -3.49,3.227 1.725,8.417 5.202,5.202 z"
   id="path65" />&#10;			</g>&#10;		</g>&#10;		<g
   id="g68">&#10;			<path
   fill="#ffffff"
   d="m 238.732,109.757 c 0.036,0.035 0.067,0.071 0.102,0.106 1.492,1.609 3.029,3.172 4.837,4.431 1.253,0.87 2.636,1.601 4.148,1.876 2.854,0.52 5.55,-0.771 7.747,-2.485 2.401,-1.869 4.457,-4.279 5.97,-6.916 1.501,-2.623 2.484,-5.661 2.116,-8.71 -0.386,-3.184 -2.26,-5.77 -4.303,-8.128 -0.246,-0.281 -0.494,-0.67 -0.791,-0.896 -2.305,-1.765 -5.654,-3.196 -8.566,-3.322 -2.966,-0.128 -5.76,1.099 -8.094,2.854 -2.38,1.792 -4.405,4.114 -5.974,6.641 -1.371,2.21 -2.596,4.87 -2.281,7.538 0.373,3.123 3.092,4.896 5.089,7.011 z"
   id="path66" />&#10;			<g
   id="g67">&#10;				<path
   d="m 236.131,112.358 c 3.126,3.26 6.28,6.106 10.71,7.359 5.126,1.45 10.145,-2.16 13.604,-5.469 3.458,-3.308 6.428,-8.328 6.834,-13.159 0.463,-5.513 -1.896,-9.647 -5.329,-13.76 -6.771,-8.112 -18.134,-5.69 -24.911,0.593 -3.323,3.081 -7.136,8.501 -7.09,13.228 0.051,5.104 2.759,7.788 6.182,11.208 3.358,3.356 8.561,-1.846 5.202,-5.202 -1.259,-1.258 -2.668,-2.409 -3.691,-3.881 -1.815,-2.611 2.025,-7.227 3.566,-9.062 3.926,-4.674 10.901,-6.939 15.54,-1.681 4.501,5.102 3.605,10.338 -0.465,15.382 -2.229,2.762 -5.662,5.798 -9.459,4.016 -2.179,-1.023 -3.858,-3.071 -5.491,-4.774 -3.289,-3.43 -8.484,1.779 -5.202,5.202 z"
   id="path67" />&#10;			</g>&#10;		</g>&#10;	</g>&#10;	&#10;</g>&#10;</svg>
