<?xml version="1.0" encoding="UTF-8" standalone="no"?>
<svg
   stroke="currentColor"
   fill="#3c00ff"
   stroke-width="0"
   viewBox="0 0 512.02266 512"
   height="200"
   width="200.00885"
   version="1.1"
   id="svg1"
   sodipodi:docname="scroll_up.svg"
   xmlns:inkscape="http://www.inkscape.org/namespaces/inkscape"
   xmlns:sodipodi="http://sodipodi.sourceforge.net/DTD/sodipodi-0.dtd"
   xmlns="http://www.w3.org/2000/svg"
   xmlns:svg="http://www.w3.org/2000/svg">
  <defs
     id="defs1" />
  <sodipodi:namedview
     id="namedview1"
     pagecolor="#ffffff"
     bordercolor="#000000"
     borderopacity="0.25"
     inkscape:showpageshadow="2"
     inkscape:pageopacity="0.0"
     inkscape:pagecheckerboard="0"
     inkscape:deskcolor="#d1d1d1" />
  <path
     d="m 251.06633,424.36 a 157.48778,168.36035 0 0 0 22.415,-1.715 157.48778,168.36035 0 0 0 21.955,-5.105 157.48778,168.36035 0 0 0 21.055,-8.395 157.48778,168.36035 0 0 0 19.72,-11.51001 157.48778,168.36035 0 0 0 17.99,-14.395 157.48778,168.36035 0 0 0 15.89,-16.985 157.48778,168.36035 0 0 0 13.465,-19.235 157.48778,168.36035 0 0 0 10.77,-21.08 157.48778,168.36035 0 0 0 7.85,-22.505 157.48778,168.36035 0 0 0 4.775,-23.475 157.48778,168.36035 0 0 0 1.60499,-23.96 157.48778,168.36035 0 0 0 -1.60499,-23.96 157.48778,168.36035 0 0 0 -4.775,-23.475 157.48778,168.36035 0 0 0 -7.85,-22.505 157.48778,168.36035 0 0 0 -10.77,-21.08 157.48778,168.36035 0 0 0 -13.465,-19.235 157.48778,168.36035 0 0 0 -15.89,-16.985 157.48778,168.36035 0 0 0 -17.99,-14.395 157.48778,168.36035 0 0 0 -19.72,-11.51 157.48778,168.36035 0 0 0 -21.055,-8.395005 157.48778,168.36035 0 0 0 -21.955,-5.105 157.48778,168.36035 0 0 0 -22.415,-1.715 157.48778,168.36035 0 0 0 -22.41,1.715 157.48778,168.36035 0 0 0 -21.955,5.105 157.48778,168.36035 0 0 0 -21.055,8.395005 157.48778,168.36035 0 0 0 -19.72,11.51 157.48778,168.36035 0 0 0 -17.99,14.395 157.48778,168.36035 0 0 0 -15.89,16.985 157.48778,168.36035 0 0 0 -13.465,19.235 157.48778,168.36035 0 0 0 -10.77,21.08 157.48778,168.36035 0 0 0 -7.850005,22.505 157.48778,168.36035 0 0 0 -4.78,23.475 157.48778,168.36035 0 0 0 -1.600004,23.96 157.48778,168.36035 0 0 0 0.19,8.26 157.48778,168.36035 0 0 0 0.57,8.24 157.48778,168.36035 0 0 0 0.945004,8.205 157.48778,168.36035 0 0 0 1.32,8.14 157.48778,168.36035 0 0 0 1.695,8.065 157.48778,168.36035 0 0 0 2.060005,7.96 157.48778,168.36035 0 0 0 2.425,7.85 157.48778,168.36035 0 0 0 2.78,7.71 157.48778,168.36035 0 0 0 3.135,7.555 157.48778,168.36035 0 0 0 3.475,7.38 157.48778,168.36035 0 0 0 3.81,7.19 157.48778,168.36035 0 0 0 4.135,6.98 157.48778,168.36035 0 0 0 4.45,6.755 157.48778,168.36035 0 0 0 4.755,6.515 157.48778,168.36035 0 0 0 5.05,6.26 157.48778,168.36035 0 0 0 5.33,5.985 157.48778,168.36035 0 0 0 5.6,5.695 157.48778,168.36035 0 0 0 5.855,5.4 157.48778,168.36035 0 0 0 6.09,5.085 157.48778,168.36035 0 0 0 6.32,4.755 157.48778,168.36035 0 0 0 6.53,4.42 157.48778,168.36035 0 0 0 6.73,4.075 157.48778,168.36035 0 0 0 6.9,3.71501 157.48778,168.36035 0 0 0 7.07,3.35 157.48778,168.36035 0 0 0 7.21,2.975 157.48778,168.36035 0 0 0 7.34,2.59 157.48778,168.36035 0 0 0 7.45,2.205 157.48778,168.36035 0 0 0 7.545,1.81 157.48778,168.36035 0 0 0 7.615,1.415 157.48778,168.36035 0 0 0 7.67,1.01 157.48778,168.36035 0 0 0 7.71,0.61 157.48778,168.36035 0 0 0 7.725,0.2 z"
     style="fill:#3c00ff;fill-opacity:1;stroke:#fefefe;stroke-width:5.12;stroke-opacity:1"
     id="path3"
     inkscape:export-filename="path3.png"
     inkscape:export-xdpi="96"
     inkscape:export-ydpi="96" />
  <path
     d="M 256.01131,512 A 256,256 0 1 0 256.01131,7.554784e-7 256,256 0 1 0 256.01131,512 Z m 129,-297 c 9.4,9.4 9.4,24.6 0,33.9 -9.4,9.3 -24.6,9.4 -33.9,0 l -71,-71 -0.1,214.1 c 0,13.3 -10.7,24 -24,24 -13.3,0 -24,-10.7 -24,-24 V 177.9 l -71,71 c -9.4,9.4 -24.6,9.4 -33.9,0 -9.3,-9.4 -9.4,-24.6 0,-33.9 l 111.9,-112 c 9.4,-9.4 24.6,-9.4 33.9,0 z"
     id="path1"
     style="fill:#ffffff" />
</svg>
