<?xml version="1.0" encoding="UTF-8" standalone="no"?>
<!-- Created with Inkscape (http://www.inkscape.org/) -->

<svg
   version="1.1"
   id="svg2"
   width="2334.8477"
   height="2206.0774"
   viewBox="0 0 2334.8477 2206.0774"
   sodipodi:docname="vecteezy_abstract-lines-topographical-pattern-background_8070570.svg"
   inkscape:version="1.3 (0e150ed6c4, 2023-07-21)"
   xmlns:inkscape="http://www.inkscape.org/namespaces/inkscape"
   xmlns:sodipodi="http://sodipodi.sourceforge.net/DTD/sodipodi-0.dtd"
   xmlns="http://www.w3.org/2000/svg"
   xmlns:svg="http://www.w3.org/2000/svg">
  <defs
     id="defs6" />
  <sodipodi:namedview
     id="namedview4"
     pagecolor="#ffffff"
     bordercolor="#000000"
     borderopacity="0.25"
     inkscape:showpageshadow="2"
     inkscape:pageopacity="0.0"
     inkscape:pagecheckerboard="0"
     inkscape:deskcolor="#d1d1d1"
     inkscape:zoom="0.16448519"
     inkscape:cx="2127.8511"
     inkscape:cy="1674.9228"
     inkscape:window-width="1920"
     inkscape:window-height="991"
     inkscape:window-x="-9"
     inkscape:window-y="-9"
     inkscape:window-maximized="1"
     inkscape:current-layer="g8" />
  <g
     id="g8"
     inkscape:groupmode="layer"
     inkscape:label="ink_ext_XXXXXX"
     transform="matrix(1.3333333,0,0,-1.3333333,-3356.3442,1643.3019)">
    <g
       id="g4"
       style="stroke-width:1.5;stroke-dasharray:none"
       inkscape:export-filename="g4.svg"
       inkscape:export-xdpi="96"
       inkscape:export-ydpi="96">
      <path
         d="m 2182.5,1909.5 c -93,-74 -205,-77 -366,-155 -85.9,-41.61 -164.33,-72.52 -242,-128 -126,-90 -192.1,-161.87 -213,-255 -9,-135 139.52,-101.81 244,-127 104.48,-25.19 162.35,-46.91 228,-132 65.65,-85.09 65.42,-240.62 14,-335 -73,-134 -38.32,-228.47 -12,-264 40,-54 121.26,-88.52 183,-100 156,-29 288.99,72.56 345,136 63.49,71.92 228.43,383.08 370,467 194,115 348.73,108.23 510,141 161.27,32.77 246.22,119.29 308.21,271.74 39.86,98.02 30.35,208.2 45.65,312.9 17.9,122.4 70.37,241.1 62.2,364.53 -12.39,187.05 -168.92,342.76 -347.95,398.36 -220.97,68.63 -614.26,31.28 -769.72,-163.14 -51.45,-64.35 -80.94,-89.4 -114.39,-161.39 -92,-198 -146.68,-192.77 -245,-271 z"
         style="fill:none;stroke:#000000;stroke-width:1.5;stroke-linecap:butt;stroke-linejoin:miter;stroke-miterlimit:10;stroke-dasharray:none;stroke-opacity:1"
         id="path46"
         inkscape:export-filename="path46.svg"
         inkscape:export-xdpi="96"
         inkscape:export-ydpi="96" />
      <path
         d="m 2574.13,2280.93 c -45.91,-55.47 -71.02,-80.06 -100.41,-145.11 -78.7,-174.2 -126.82,-174.66 -213.41,-245.66 -66.05,-54.17 -143.73,-68 -247.3,-105.99 -24.95,-9.14 -51.29,-19.84 -79.2,-33 -76.92,-36.28 -147.45,-63.8 -217.24,-112.61 -111.99,-78.71 -172.53,-142.22 -194.07,-223.92 -11.17,-117.5 112.11,-91.86 198.27,-116.19 86.61,-24.46 134.14,-45.36 188.23,-121.86 19.6,-27.72 31.75,-63.56 37.5,-101.94 10.06,-68.66 -0.24,-145.17 -28.21,-199.48 -61.2,-118.84 -29.6,-202.05 -2.79,-234.53 39.47,-47.81 112.35,-73.88 168.84,-80.43 35.58,-4.13 69.83,-1.67 102.25,5.57 96.02,21.64 170.85,82.67 213.2,127.01 62.81,65.77 213.2,328.56 343.27,399.53 49.91,27.24 96.81,46.75 142.07,61.08 112.87,36.11 214.57,39.48 318.59,61.23 144.59,30.16 222.87,107.98 278.74,244.65 35.21,86.29 27.56,183.14 40.75,275.33 15.42,107.74 59.88,212.35 51.88,320.89 -12.08,164.38 -148.96,300.94 -305.29,352.24 -196.59,64.5 -553.68,44.78 -695.67,-126.81 z"
         style="fill:none;stroke:#000000;stroke-width:1.5;stroke-linecap:butt;stroke-linejoin:miter;stroke-miterlimit:10;stroke-dasharray:none;stroke-opacity:1"
         id="path48" />
      <path
         d="m 2606.36,2219.96 c -40.3,-46.61 -61.1,-70.7 -86.41,-128.82 -65.49,-150.35 -106.98,-156.56 -181.83,-220.33 -57.11,-48.67 -125.13,-62.82 -216.87,-94.92 -22.16,-7.72 -45.49,-16.83 -70.14,-28.06 -67.93,-30.93 -130.65,-54.92 -192.47,-97.21 -98.15,-67.17 -152.97,-122.57 -175.14,-192.83 -13.35,-100.01 84.64,-81.94 152.54,-105.39 68.69,-23.73 105.92,-43.87 148.47,-111.72 15.54,-24.78 24.84,-56.6 28.99,-90.56 7.51,-61.32 -1.37,-128.99 -24.41,-177.28 -49.46,-103.61 -20.98,-175.64 6.41,-205.05 38.8,-41.67 103.34,-59.3 154.67,-60.87 31.65,-0.97 62.22,2.97 91.41,10.81 86.77,23.66 151.59,77.08 194.49,118.34 62.06,59.68 197.87,274.08 316.55,332.08 44.69,21.83 86.66,37.87 127.33,49.94 100.26,29.75 191.43,33.64 284,53.68 127.9,27.54 199.51,96.67 249.26,217.55 30.55,74.56 24.78,158.09 35.85,237.75 12.94,93.09 49.39,183.61 41.57,277.26 -11.77,141.71 -129,259.2 -262.65,306.11 -172.21,60.46 -492.99,58.3 -621.62,-90.48 z"
         style="fill:none;stroke:#000000;stroke-width:1.5;stroke-linecap:butt;stroke-linejoin:miter;stroke-miterlimit:10;stroke-dasharray:none;stroke-opacity:1"
         id="path50" />
      <path
         d="m 2638.59,2158.99 c -34.62,-37.78 -51.2,-61.32 -72.42,-112.52 -52.39,-126.44 -87.12,-138.47 -150.24,-195 -48.18,-43.18 -106.53,-57.64 -186.43,-83.86 -19.38,-6.31 -39.71,-13.82 -61.08,-23.11 -58.96,-25.59 -113.8,-46.13 -167.7,-81.83 -84.22,-55.77 -133.41,-102.91 -156.22,-161.74 -15.52,-82.51 57.08,-72 106.81,-94.59 50.67,-23.01 77.7,-42.47 108.7,-101.57 11.48,-21.88 17.86,-49.66 20.49,-79.17 4.82,-54.02 -2.51,-112.77 -20.62,-155.09 -37.79,-88.28 -12.44,-149.27 15.62,-175.58 37.98,-35.6 94.22,-44.82 140.51,-41.31 27.65,2.11 54.61,7.56 80.55,16.07 77.61,25.46 132.28,71.52 175.8,109.67 61.2,53.65 182.39,219.67 289.82,264.61 39.41,16.49 76.48,29.08 112.59,38.81 87.57,23.6 168.3,27.79 249.4,46.12 111.21,24.93 176.16,85.36 219.79,190.46 25.89,62.83 21.99,133.03 30.94,200.18 10.47,78.43 38.9,154.86 31.27,233.61 -11.46,119.05 -109.04,217.59 -220,260 -147.87,56.5 -432.16,71.8 -547.58,-54.16 z"
         style="fill:none;stroke:#000000;stroke-width:1.5;stroke-linecap:butt;stroke-linejoin:miter;stroke-miterlimit:10;stroke-dasharray:none;stroke-opacity:1"
         id="path52" />
      <path
         d="m 2670.82,2098.02 c -28.84,-29.01 -41.34,-51.9 -58.43,-96.23 -39.47,-102.41 -67.26,-120.36 -118.65,-169.66 -39.24,-37.68 -87.93,-52.47 -155.99,-72.8 -16.6,-4.9 -33.92,-10.82 -52.03,-18.16 -49.97,-20.25 -96.93,-37.36 -142.93,-66.44 -70.25,-44.41 -113.84,-83.26 -137.29,-130.66 -17.7,-65.01 29.3,-62 61.08,-83.78 32.46,-22.25 49.41,-41.23 68.93,-91.43 7.4,-19.04 10.86,-42.72 11.99,-67.79 2.1,-46.73 -3.69,-96.48 -16.83,-132.89 -26.26,-72.81 -4.01,-122.98 24.83,-146.11 36.99,-29.66 85.01,-30.55 126.35,-21.74 23.6,5.03 47,12.19 69.69,21.31 68.4,27.47 112.92,66.03 157.1,101 60.27,47.7 166.72,165.43 263.09,197.15 34.07,11.21 66.29,20.31 97.86,27.69 74.86,17.49 145.16,21.94 214.8,38.55 94.53,22.32 152.81,74.06 190.32,163.37 21.23,51.11 19.2,107.97 26.04,162.61 7.99,63.77 28.41,126.11 20.96,189.97 -11.15,96.39 -89.05,176.16 -177.36,213.87 -123.53,52.74 -371.06,85.26 -473.53,-17.83 z"
         style="fill:none;stroke:#000000;stroke-width:1.5;stroke-linecap:butt;stroke-linejoin:miter;stroke-miterlimit:10;stroke-dasharray:none;stroke-opacity:1"
         id="path54" />
      <path
         d="m 2703.05,2037.06 c -22.88,-20.36 -31.56,-42.44 -44.43,-79.95 -26.86,-78.22 -47.41,-102.26 -87.07,-144.33 -30.3,-32.18 -69.33,-47.29 -125.55,-61.72 -13.82,-3.5 -28.13,-7.82 -42.97,-13.23 -40.99,-14.9 -80.04,-28.6 -118.17,-51.04 -56.23,-33.1 -94.28,-63.61 -118.36,-99.58 -19.87,-47.51 1.11,-51.48 15.34,-72.97 13.91,-20.99 20.94,-40.21 29.18,-81.3 3.26,-16.26 3.83,-35.77 3.48,-56.39 -0.66,-39.45 -4.98,-80.09 -13.04,-110.7 -15.03,-57.12 4.3,-96.81 34.04,-116.64 35.85,-23.89 75.8,-16.61 112.19,-2.17 19.56,7.76 39.37,16.85 58.84,26.55 59.16,29.51 93.48,60.61 138.4,92.34 59.25,41.85 150.81,111.52 236.36,129.68 28.63,6.08 56.09,11.57 83.12,16.56 62.12,11.47 122.02,16.09 180.21,31 77.84,19.7 129.63,62.67 160.84,136.27 16.67,39.34 16.42,82.91 21.14,125.03 5.51,49.12 17.92,97.37 10.65,146.34 -10.84,73.72 -68.99,135.05 -134.71,167.74 -99.16,49.32 -309.52,98.53 -399.49,18.51 z"
         style="fill:none;stroke:#000000;stroke-width:1.5;stroke-linecap:butt;stroke-linejoin:miter;stroke-miterlimit:10;stroke-dasharray:none;stroke-opacity:1"
         id="path56" />
      <path
         d="m 2735.28,1976.09 c -16.65,-11.95 -21.99,-32.87 -30.44,-63.65 -14.78,-53.82 -27.55,-84.17 -55.48,-119 -21.37,-26.69 -50.73,-42.11 -95.11,-50.66 -11.04,-2.09 -22.35,-4.81 -33.92,-8.28 -32.01,-9.56 -63.1,-19.93 -93.4,-35.66 -42.15,-21.88 -74.71,-43.95 -99.43,-68.48 -22.04,-30.02 -26.04,-39.71 -30.39,-62.17 -3.57,-18.47 -8.07,-39.37 -10.59,-71.16 -1.08,-13.57 -3.25,-28.84 -5.02,-45.01 -3.52,-32.17 -6.56,-63.57 -9.24,-88.5 -4.43,-41.18 12.51,-70.86 43.24,-87.16 34.61,-18.36 66.85,-3.09 98.02,17.39 15.66,10.28 31.75,21.51 47.99,31.8 49.91,31.59 74,55.28 119.7,83.66 58.18,36.13 134.74,58.36 209.64,62.23 23.13,1.19 45.87,2.87 68.38,5.42 49.35,5.59 98.88,10.25 145.61,23.44 61.15,17.09 106.26,51.37 131.37,109.18 11.99,27.62 13.63,57.86 16.23,87.46 3.04,34.46 7.44,68.62 0.35,102.69 -10.54,51.06 -48.72,94.5 -92.07,121.63 -74.51,46.62 -247.07,111.02 -325.44,54.83 z"
         style="fill:none;stroke:#000000;stroke-width:1.5;stroke-linecap:butt;stroke-linejoin:miter;stroke-miterlimit:10;stroke-dasharray:none;stroke-opacity:1"
         id="path58" />
      <path
         d="m 2662.5,1734.5 c -59.65,-4.88 -120.83,-33.53 -174,-61 -53.17,-27.47 -122,-78 -140,-146 -15.31,-57.85 -8.7,-102.12 47,-124 49.12,-19.3 80.41,40.26 121,74 40.59,33.74 54.47,50.09 101,75 72.9,39.03 153.86,-10.84 236.56,-10.94 82.69,-0.11 178.57,22.72 212.89,97.96 28.15,61.69 1.12,137.74 -48.05,184.44 -48.23,45.82 -182.64,119.57 -251.39,91.16 -31.72,-13.11 4.99,-171.62 -105.01,-180.62 z"
         style="fill:none;stroke:#000000;stroke-width:1.5;stroke-linecap:butt;stroke-linejoin:miter;stroke-miterlimit:10;stroke-dasharray:none;stroke-opacity:1"
         id="path60" />
    </g>
    <g
       id="g3"
       style="stroke-width:1.5;stroke-dasharray:none"
       inkscape:export-filename="g3.svg"
       inkscape:export-xdpi="96"
       inkscape:export-ydpi="96">
      <path
         d="m 1347.55,187.61 c -24.38,83.33 -14.39,178.01 34.65,249.65 49.05,71.64 138.7,116.01 224.54,102.99 104.3,-15.81 179.59,-104.63 269.61,-159.62 118.94,-72.67 272.76,-84.94 401.73,-32.06 58.67,24.05 111.82,60.45 171.23,82.61 120.47,44.94 264.29,24.2 364.36,-56.54 100.07,-80.73 150.83,-219.71 122.01,-345.0197 -22.54,-98.0101 -89.4,-181.9403 -171.35,-240.2503 -81.94,-58.3 -178.31,-93.18 -275.69,-118.31 -319.26,-82.39 -663.99,-64.5 -972.2,52.69 -84.39,32.09 -193.95,94.55 -162.82,201 10.44,35.6699 35.78,56.3801 38.92,96.65 4.5,57.5902 -29.34,112.7 -44.99,166.21 z"
         style="fill:none;stroke:#000000;stroke-width:1.5;stroke-linecap:butt;stroke-linejoin:miter;stroke-miterlimit:10;stroke-dasharray:none;stroke-opacity:1"
         id="path62"
         inkscape:export-filename="path62.svg"
         inkscape:export-xdpi="96"
         inkscape:export-ydpi="96" />
      <path
         d="m 1490.25,355.03 c 43.62,58.77 118.71,94.17 191.53,84.25 66.15,-9.04 120.25,-50.53 175.3,-89.64 18.33,-12.99 36.82,-25.72 55.99,-36.89 101.66,-59.28 229.12,-73.3 339.33,-34.47 51.9,18.29 99.7,47.16 152.13,65.46 26.97,9.41 55.08,15.59 83.54,18.29 83.69,7.96 171.27,-16.07 233.88,-71.04 77.96,-68.46 116.21,-179.59 91.45,-280.9099 -19.25,-78.9699 -73.29,-146.7701 -138.67,-194.9101 -69.41,-51.11 -150.89,-83.32 -234.15,-105.83 -169.89,-45.94 -350.51,-54.59 -522.42,-23.56 -106,19.13 -206.35,46.01 -308.05,82.98 -69.64,25.32 -157.42,74.07 -139.49,157.1298 6.03,27.9305 23.14,44.8903 23.92,76.7602 0.98,45.7203 -26.33,90.2 -39.38,134.3 -21.86,73.33 -10.26,156.97 35.09,218.08 z"
         style="fill:none;stroke:#000000;stroke-width:1.5;stroke-linecap:butt;stroke-linejoin:miter;stroke-miterlimit:10;stroke-dasharray:none;stroke-opacity:1"
         id="path64" />
      <path
         d="m 1598.3,272.81 c 38.04,45.98 98.71,72.31 158.52,65.5 53.97,-6.2 100.2,-36.13 146.18,-65.39 15.39,-9.74 30.87,-19.4 46.8,-28.06 84.36,-45.89 185.66,-61.93 276.91,-36.87 45.22,12.41 87.6,33.88 133.04,48.3 23.37,7.42 47.5,12.6 71.93,14.97 71.87,7 148.1,-13.93 198.55,-63.93 56.16,-55.66 81.58,-139.4698 60.88,-216.79992 C 2675.16,-69.4 2634.03,-121.17 2585.12,-159.04 c -56.82,-44 -123.46,-73.46 -192.59,-93.35 -141.04,-40.58 -293.7,-45.23 -433.98,-9.59 -88.6,22.51 -167.68,46.14 -254.77,75.75 -54.85,18.65 -120.92,53.7 -116.16,113.2601 1.62,20.2199 10.58,33.4097 8.92,56.8699 -2.41,33.8699 -23.32,67.7 -33.77,102.3902 -19.33,63.3298 -6.27,135.9798 35.53,186.5198 z"
         style="fill:none;stroke:#000000;stroke-width:1.5;stroke-linecap:butt;stroke-linejoin:miter;stroke-miterlimit:10;stroke-dasharray:none;stroke-opacity:1"
         id="path66" />
      <path
         d="m 1706.35,190.58 c 32.23,33.35 78.72,50.47 125.51,46.76 41.79,-3.37 80.16,-21.74 117.07,-41.13 12.44,-6.5 24.91,-13.09 37.6,-19.23 67.07,-32.51 142.39,-51.07 214.5,-39.28 38.63,6.31 75.48,20.59 113.94,31.15 19.76,5.42 39.93,9.6 60.32,11.64 60.06,6.04 125.31,-11.23 163.22,-56.81 34.98,-42.0698 46.95,-99.3499 30.32,-152.6898 -12.66,-40.8902 -40.75,-76.8602 -73.31,-104.2402 -44.11,-37.09 -96.05,-63.59 -151.05,-80.87 -112.19,-35.22 -236.83,-35.51 -345.53,4.38 -71.16,26.11 -128.92,46.49 -201.49,68.52 -40,12.14 -84.66,33.55 -92.83,69.4001 -2.87,12.5898 -2.06,21.9301 -6.09,36.9801 -5.91,22.0296 -20.24,45.2101 -28.14,70.4699 C 1653.7,89 1667.89,150.78 1706.35,190.58 Z"
         style="fill:none;stroke:#000000;stroke-width:1.5;stroke-linecap:butt;stroke-linejoin:miter;stroke-miterlimit:10;stroke-dasharray:none;stroke-opacity:1"
         id="path68" />
      <path
         d="m 1778,-15.0301 c -14.29,43.3301 0.88,94.7602 36.4,123.3901 49.03,39.5 120.87,31.53 180.45,11.14 59.57,-20.4 117.54,-51.4398 180.5,-52.0898 48.5,-0.5 95.31,17.25 143.55,22.3199 48.24,5.0601 104.39,-7.2699 127.89,-49.7102 26.55,-47.9699 -2.04,-108.7699 -40.88,-147.4799 -93.77,-93.47 -251.18,-114.95 -366.58,-50.04 -53.52,30.11 -89.99,47.48 -148.21,61.2902 -49.19,11.67 -95.41,27.4899 -113.12,81.1797 z"
         style="fill:none;stroke:#000000;stroke-width:1.5;stroke-linecap:butt;stroke-linejoin:miter;stroke-miterlimit:10;stroke-dasharray:none;stroke-opacity:1"
         id="path70" />
    </g>
    <g
       id="g6"
       style="stroke-width:1.5;stroke-dasharray:none">
      <path
         d="m 2988.5,235.5 c -47.04,121.31 -156.19,228 -280,268 -73.96,23.9 -206,29 -189,133 13.65,83.48 93.89,190.23 164.24,237.2 327.76,218.8 448.15,143.53 636.76,203.8 123.54,39.48 252.46,146.73 382,153 372,18 388.72,-165.22 507,-334 84.4,-120.43 63.64,-277.98 21,-418.73 -35.3,-116.53 -127.29,-206.47 -182.86,-314.81 -56.23,-109.6198 -74.23,-236.3397 -135.37,-343.3 -94.41,-165.15 -294.26,-263.16 -482.64,-236.7 -146.29,20.55 -331.43,27.74 -404.13,155.54 -46.33,81.44 -47.1,87.95 -25,172 23.6,89.75 21.63,238.28 -12,325 z"
         style="fill:none;stroke:#000000;stroke-width:1.5;stroke-linecap:butt;stroke-linejoin:miter;stroke-miterlimit:10;stroke-dasharray:none;stroke-opacity:1"
         id="path72"
         inkscape:export-filename="path72.svg"
         inkscape:export-xdpi="96"
         inkscape:export-ydpi="96" />
      <path
         d="m 2772.09,826.17 c 94.34,65.19 172.99,100.73 240.43,121.36 138.07,42.25 227.29,21.82 345,58.06 108.94,33.53 222.2,126.23 336.07,131.47 323.4,15.2 341.68,-143.29 446.89,-291.52 78,-109.9 57.19,-256.09 14.48,-381.63 -34.44,-101.24 -115.56,-179.32 -166.68,-272.63 -24.2,-44.2 -41.23,-91.58 -58.2,-138.9999 -19.25,-53.85002 -38.53,-107.8 -68.15,-157.1701 -51.69,-86.03 -135.55,-152.04 -229.02,-187.83 -62.35,-23.86 -128.84,-33.6 -194.54,-26.91 -128.26,13.07 -295.89,16.72 -362.87,129.71 -41.63,70.23 -42.3,77.6 -23.42,151.5102 20.15,79.3297 19.16,209.6998 -9,287.0798 -39.45,107.95 -132.7,201.9 -239.37,240.04 -65.33,23.37 -180.08,31.25 -169.42,123.02 8.73,75.1 73.33,169.9 137.8,214.44 z"
         style="fill:none;stroke:#000000;stroke-width:1.5;stroke-linecap:butt;stroke-linejoin:miter;stroke-miterlimit:10;stroke-dasharray:none;stroke-opacity:1"
         id="path74" />
      <path
         d="m 2860.43,778.65 c 83.1,59.81 156.28,91.02 219.42,108.44 125.11,34.51 207.08,15 314.69,46.58 94.3,27.67 191.95,105.74 290.13,109.94 274.81,12.42 294.71,-121.31 386.78,-249.03 71.63,-99.37 50.89,-234.1 7.97,-344.54 -33.4,-85.92 -103.84,-152.17 -150.5,-230.44 -22.08,-37.07 -38.18,-76.76 -54.21,-116.55 C 3856.56,57.8703 3838.32,12.4301 3811.59,-29.4398 3764.83,-102.43 3691.68,-159.55 3612,-192.77 c -53.13,-22.11 -108.92,-32.26 -164.88,-29.44 -110.34,5.55 -260.3,5.67 -321.62,103.87 -36.87,59.04 -37.5,67.24 -21.84,131.0201 16.7,68.9 16.69,181.1299 -5.99,249.1599 -31.87,94.58 -109.25,175.99 -198.74,212.09 -56.77,22.9 -154.3,33.62 -149.84,113.03 3.75,66.86 52.78,149.54 111.34,191.69 z"
         style="fill:none;stroke:#000000;stroke-width:1.5;stroke-linecap:butt;stroke-linejoin:miter;stroke-miterlimit:10;stroke-dasharray:none;stroke-opacity:1"
         id="path76" />
      <path
         d="m 2948.77,731.13 c 71.91,54.36 139.54,81.37 198.41,95.52 112.07,26.93 186.83,8.23 284.38,35.11 79.61,21.93 161.7,85.07 244.2,88.41 226.24,9.15 247.82,-99.28 326.67,-206.55 65.29,-88.81 44.82,-212 1.45,-307.45 -32.08,-70.59 -92.11,-125.01 -134.33,-188.25 -19.94,-29.95 -35.13,-61.93 -50.21,-94.1 -17.05,-36.51 -34.25,-73.4399 -58.1,-107.8098 C 3719.43,-13.95 3656.98,-62.1797 3591.09,-92.8199 3547.18,-113.18 3502.01,-123.79 3455.87,-124.8 c -92.59,-2.03 -224.6,-5.4 -280.37,78.0301 -32.01,47.89021 -32.57,56.8601 -20.26,110.5398 13.4,58.4501 14.38,152.5901 -2.99,211.2501 -24.07,81.27 -85.82,150.37 -158.11,184.12 -48.29,22.55 -128.75,36.18 -130.26,103.05 -1.33,58.8 32.25,129.14 84.89,168.94 z"
         style="fill:none;stroke:#000000;stroke-width:1.5;stroke-linecap:butt;stroke-linejoin:miter;stroke-miterlimit:10;stroke-dasharray:none;stroke-opacity:1"
         id="path78" />
      <path
         d="m 3037.12,683.61 c 60.76,48.81 122.75,71.8 177.39,82.59 98.96,19.55 166.53,1.57 254.07,23.64 64.87,16.36 131.44,64.53 198.27,66.88 177.64,6.26 201.03,-77.18 266.55,-164.05 59.01,-78.24 39.14,-189.82 -5.07,-270.37 -30.34,-55.29 -80.37,-97.86 -118.14,-146.05 -17.82,-22.83 -32.09,-47.12 -46.22,-71.66 -15.95,-27.85 -32.11,-56.26 -53.07,-83.13 -36.87,-46.9299 -88.63,-86.26 -140.71,-114.32992 -34.7,-18.61018 -69.34,-29.79998 -105.57,-34.51988 -75.08,-9.7801 -188.73,-16.4704 -239.12,52.2 -26.99,36.78 -27.74,46.5 -18.68,90.0398 9.99,48.03 11.94,124.02 0.01,173.34 -16.44,67.91 -62.35,125.23 -117.47,156.17 -39.91,22.4 -103.61,38.92 -110.69,93.06 -6.66,50.95 11.75,108.68 58.45,146.19 z"
         style="fill:none;stroke:#000000;stroke-width:1.5;stroke-linecap:butt;stroke-linejoin:miter;stroke-miterlimit:10;stroke-dasharray:none;stroke-opacity:1"
         id="path80" />
      <path
         d="m 3125.46,636.08 c 49.72,43.15 105.93,62.37 156.38,69.68 85.77,12.42 146.15,-4.9 223.76,12.17 50.04,11 101.19,43.99 152.34,45.35 129.04,3.41 154.4,-54.98 206.44,-121.57 52.82,-67.59 34.15,-167.7 -11.59,-233.27 -28.01,-40.16 -68.65,-70.71 -101.96,-103.87 -15.69,-15.7 -29.04,-32.29 -42.22,-49.2 -14.86,-19.19 -29.93,-39.13 -48.05,-58.46 -31.85,-33.98 -72.99,-64.34 -111.28,-89.82 -25.48,-16.8798 -49.71,-28.9201 -75.92,-37.0701 -57.87,-18 -152.52,-27.4898 -197.86,26.3699 -21.71,25.7902 -22.92,36.1502 -17.1,69.5502 6.56,37.61 9.49,95.43 3.01,135.42 -8.83,54.53 -38.72,100.85 -76.84,128.21 -31.55,22.65 -79.17,41.79 -91.11,83.08 -12.5,43.27 -8.68,88.13 32,123.43 z"
         style="fill:none;stroke:#000000;stroke-width:1.5;stroke-linecap:butt;stroke-linejoin:miter;stroke-miterlimit:10;stroke-dasharray:none;stroke-opacity:1"
         id="path82" />
      <path
         d="m 3213.8,588.56 c 38.81,37.32 89.09,53.15 135.37,56.75 72.55,5.65 125.65,-10.89 193.45,0.7 35.13,6.01 70.93,23.51 106.41,23.82 80.43,0.71 107.99,-32.6 146.33,-79.08 46.83,-56.79 30.42,-146.35 -18.11,-196.18 -24.85,-25.52 -56.92,-43.56 -85.78,-61.68 -13.57,-8.57 -26,-17.47 -38.23,-26.75 -13.76,-10.53 -27.81,-21.95 -43.02,-33.78 -26.94,-20.94 -57.35,-42.42 -81.85,-65.32 -16.26,-15.12 -30.02,-28.62 -46.26,-39.61 -40.57,-27.44 -115.59,-38.1 -156.61,0.54 -16.01,15.08 -18.15,25.81 -15.52,49.06 3.08,27.2 6.98,66.83 6.02,97.5 -1.31,41.13 -14.48,77.66 -36.21,100.26 -22.82,23.72 -55.76,44.4 -71.53,73.09 -19.41,35.31 -29.01,67.45 5.54,100.68 z"
         style="fill:none;stroke:#000000;stroke-width:1.5;stroke-linecap:butt;stroke-linejoin:miter;stroke-miterlimit:10;stroke-dasharray:none;stroke-opacity:1"
         id="path84" />
      <path
         d="m 3416.5,584.87 c -42.09,0.47 -86.23,-12.53 -114.35,-43.83 -47.3,-52.65 44.87,-76.04 72.85,-141.04 17.29,-40.15 -38.08,-139.9 0.5,-160.45 38.58,-20.56 94.61,-13.19 115.36,25.29 7.17,13.31 9.56,28.78 16.6,42.15 16.67,31.65 55.02,44.71 90.41,49.92 35.38,5.21 72.88,5.87 103.84,23.79 53.23,30.81 66.05,113.62 24.62,159.09 -39.42,43.27 -94.05,38.4 -146.69,34.31 -58.14,-4.52 -103.75,10.11 -163.14,10.77 z"
         style="fill:none;stroke:#000000;stroke-width:1.5;stroke-linecap:butt;stroke-linejoin:miter;stroke-miterlimit:10;stroke-dasharray:none;stroke-opacity:1"
         id="path86" />
    </g>
  </g>
</svg>
