<?xml version="1.0" encoding="UTF-8" standalone="no"?>
<!-- Created with Inkscape (http://www.inkscape.org/) -->

<svg
   version="1.1"
   id="svg2"
   width="2983.4263"
   height="1981.8289"
   viewBox="0 0 2983.4263 1981.8289"
   sodipodi:docname="vecteezy_abstract-lines-topographical-pattern-background_8070570.svg"
   inkscape:version="1.3 (0e150ed6c4, 2023-07-21)"
   xmlns:inkscape="http://www.inkscape.org/namespaces/inkscape"
   xmlns:sodipodi="http://sodipodi.sourceforge.net/DTD/sodipodi-0.dtd"
   xmlns="http://www.w3.org/2000/svg"
   xmlns:svg="http://www.w3.org/2000/svg">
  <defs
     id="defs6" />
  <sodipodi:namedview
     id="namedview4"
     pagecolor="#ffffff"
     bordercolor="#000000"
     borderopacity="0.25"
     inkscape:showpageshadow="2"
     inkscape:pageopacity="0.0"
     inkscape:pagecheckerboard="0"
     inkscape:deskcolor="#d1d1d1"
     inkscape:zoom="0.16448519"
     inkscape:cx="2127.8511"
     inkscape:cy="1674.9228"
     inkscape:window-width="1920"
     inkscape:window-height="991"
     inkscape:window-x="-9"
     inkscape:window-y="-9"
     inkscape:window-maximized="1"
     inkscape:current-layer="g8" />
  <g
     id="g8"
     inkscape:groupmode="layer"
     inkscape:label="ink_ext_XXXXXX"
     transform="matrix(1.3333333,0,0,-1.3333333,-90.917084,3626.275)">
    <g
       id="g1"
       style="stroke-width:1.5;stroke-dasharray:none">
      <path
         d="M 289.193,2226.63 C 186.869,2152.76 100.973,2048.24 75.6664,1924.59 50.3598,1800.95 97.0609,1658.67 205.738,1594.51 c 98.44,-58.13 223.194,-44.35 331.156,-81.94 102.126,-35.56 182.114,-114.15 268.773,-178.84 86.659,-64.69 194.523,-118.72 299.603,-93.17 77.52,18.85 138.94,78.12 186.21,142.39 47.27,64.26 84.59,135.85 136.76,196.21 176.77,204.56 479.81,238.79 704.24,389.52 98.1,65.89 166.45,219.78 172.02,337.82 3.82,81.05 -13.43,105.94 -67.72,166.24 -54.28,60.3 -125.37,103.19 -199.17,136.91 -273.95,125.16 -590,131.24 -886.12,76.27 -105.04,-19.5 -209.891,-46.79 -303.905,-97.52 -95.752,-51.67 -146.611,-151.14 -235.886,-201.95 -105.184,-59.86 -221.786,-87.1 -322.506,-159.82 z"
         style="fill:none;stroke:#000000;stroke-width:1.5;stroke-linecap:butt;stroke-linejoin:miter;stroke-miterlimit:10;stroke-dasharray:none;stroke-opacity:1"
         id="path14" />
      <path
         d="m 364.439,2212.64 c -88.983,-67.84 -164.045,-161.36 -182.833,-271.97 -20.27,-119.32 24.946,-253.45 128.883,-312.66 86.7,-50.57 195.864,-39.12 290.477,-71.34 89.815,-30.47 160.468,-97.4 236.564,-151.98 76.201,-54.53 170.54,-100.46 261.55,-75.73 68.85,18.71 123.23,73.83 166.13,132.07 23.28,31.6 44.19,64.91 66.23,97.31 18.61,27.35 37.98,53.99 60.09,78.45 71.61,79.3 164.87,128.85 263.9,170.79 127.08,53.76 264.38,95.27 379.05,171.71 88.5,59.07 150.61,195.68 156.23,301.75 3.7,71.9 -11.47,95.58 -58.96,149.69 -48.47,55.22 -112.79,94.52 -179.76,125.2 -8.81,4.04 -17.66,7.93 -26.56,11.69 -244.69,103.45 -518.64,104.88 -777.18,56.23 -95.11,-17.91 -190.131,-42.68 -276.084,-87.37 -52.316,-27.28 -90.822,-69.29 -131.015,-108.03 -26.583,-25.75 -53.928,-50.22 -86.479,-68.19 -96.209,-53.07 -201.48,-79.96 -290.233,-147.62 z"
         style="fill:none;stroke:#000000;stroke-width:1.5;stroke-linecap:butt;stroke-linejoin:miter;stroke-miterlimit:10;stroke-dasharray:none;stroke-opacity:1"
         id="path16" />
      <path
         d="m 439.685,2198.65 c -75.655,-61.74 -139.403,-144.51 -152.139,-241.89 -15.069,-115.22 28.497,-240.99 127.695,-295.26 74.96,-43 168.532,-33.89 249.798,-60.73 77.504,-25.39 138.82,-80.64 204.354,-125.12 65.742,-44.37 146.577,-82.08 223.497,-58.3 60.24,18.63 107.51,69.55 146.05,121.76 20.93,28.35 40.04,57.98 60.39,86.58 17.19,24.14 35.14,47.44 55.49,68.73 65.73,68.93 150.52,111.1 239.81,146.61 114.83,45.53 238.57,80.64 341.85,148.88 78.91,52.24 134.76,171.56 140.44,265.66 3.57,62.76 -9.5,85.26 -50.21,133.16 -42.63,50.15 -100.19,85.85 -160.34,113.49 -7.9,3.63 -15.85,7.13 -23.83,10.51 -222.34,94.24 -466.07,93.34 -697.52,49.04 -85.19,-16.3 -170.381,-38.57 -248.274,-77.22 -47.124,-23.53 -82.905,-59.17 -120.043,-92.14 -24.51,-21.76 -49.616,-42.71 -79.058,-58.35 -87.233,-46.27 -181.173,-72.75 -257.96,-135.41 z"
         style="fill:none;stroke:#000000;stroke-width:1.5;stroke-linecap:butt;stroke-linejoin:miter;stroke-miterlimit:10;stroke-dasharray:none;stroke-opacity:1"
         id="path18" />
      <path
         d="m 514.931,2184.66 c -62.354,-55.55 -114.21,-127.84 -121.445,-211.82 -9.591,-111.33 32.049,-228.53 126.507,-277.84 63.22,-35.44 141.156,-28.8 209.118,-50.13 65.151,-20.45 117.096,-64.01 172.144,-98.26 55.208,-34.34 122.635,-63.5 185.445,-40.86 51.68,18.63 91.8,65.27 125.97,111.44 18.58,25.1 35.9,51.06 54.55,75.85 15.76,20.93 32.31,40.9 50.89,59 59.85,58.57 136.16,93.35 215.72,122.43 102.57,37.31 212.76,66.03 304.64,126.05 69.32,45.42 119.14,147.44 124.66,229.59 3.59,53.6 -7.5,74.96 -41.46,116.62 -36.77,45.1 -87.6,77.17 -140.91,101.77 -7,3.23 -14.05,6.35 -21.11,9.35 -200,85.03 -413.5,81.78 -617.87,41.85 -75.26,-14.71 -150.622,-34.46 -220.453,-67.08 -41.934,-19.77 -74.931,-49.1 -109.072,-76.24 -22.398,-17.8 -45.303,-35.2 -71.637,-48.52 -78.258,-39.47 -160.878,-65.47 -225.687,-123.2 z"
         style="fill:none;stroke:#000000;stroke-width:1.5;stroke-linecap:butt;stroke-linejoin:miter;stroke-miterlimit:10;stroke-dasharray:none;stroke-opacity:1"
         id="path20" />
      <path
         d="m 590.177,2170.67 c -49.109,-49.23 -88.372,-111.31 -90.752,-181.75 -3.635,-107.64 35.601,-216.06 125.32,-260.42 51.48,-27.89 113.818,-23.61 168.439,-39.53 52.833,-15.4 95.436,-47.29 139.934,-71.39 44.737,-24.24 98.692,-44.62 147.402,-23.44 43.19,18.79 76.07,60.99 105.88,101.13 16.23,21.85 31.75,44.13 48.72,65.12 14.33,17.72 29.46,34.35 46.28,49.28 53.98,48.2 121.8,75.59 191.64,98.25 90.3,29.09 186.94,51.41 267.43,103.21 59.72,38.6 103.34,123.33 108.87,193.52 3.5,44.45 -5.46,64.7 -32.71,100.08 -30.89,40.1 -75,68.49 -121.49,90.06 -6.1,2.83 -12.23,5.55 -18.39,8.17 -177.64,75.82 -360.93,70.24 -538.2,34.67 -65.34,-13.12 -130.94,-30.21 -192.643,-56.94 -36.782,-15.93 -66.939,-39.05 -98.099,-60.34 -20.275,-13.86 -40.992,-27.69 -64.217,-38.69 -69.282,-32.67 -140.619,-58.06 -193.414,-110.99 z"
         style="fill:none;stroke:#000000;stroke-width:1.5;stroke-linecap:butt;stroke-linejoin:miter;stroke-miterlimit:10;stroke-dasharray:none;stroke-opacity:1"
         id="path22" />
      <path
         d="m 665.423,2156.68 c -35.985,-42.73 -61.795,-94.87 -60.058,-151.68 3.181,-104.08 39.153,-203.59 124.132,-243 39.74,-20.33 86.488,-18.41 127.759,-28.93 40.523,-10.34 73.797,-30.57 107.725,-44.53 34.287,-14.11 74.679,-25.22 109.349,-6 34.74,19.27 60.36,56.7 85.8,90.81 13.88,18.61 27.6,37.2 42.88,54.38 12.91,14.53 26.63,27.81 41.68,39.57 48.1,37.82 107.44,57.84 167.55,74.06 78.04,20.87 161.13,36.79 230.23,80.38 50.13,31.79 87.51,99.22 93.07,157.44 3.38,35.31 -3.35,54.51 -23.95,83.54 -24.95,35.16 -62.41,59.83 -102.07,78.35 -5.19,2.43 -10.42,4.76 -15.66,7.01 -155.3,66.6 -308.36,58.68 -458.54,27.47 -55.42,-11.52 -111.18,-26.09 -164.833,-46.78 -31.587,-12.18 -58.923,-29.02 -87.127,-44.46 -18.135,-9.92 -36.679,-20.17 -56.797,-28.85 -60.306,-25.87 -120.464,-50.48 -161.14,-98.78 z"
         style="fill:none;stroke:#000000;stroke-width:1.5;stroke-linecap:butt;stroke-linejoin:miter;stroke-miterlimit:10;stroke-dasharray:none;stroke-opacity:1"
         id="path24" />
      <path
         d="m 740.669,2142.69 c -23.131,-35.98 -34.395,-78.37 -29.364,-121.61 11.679,-100.4 42.704,-191.13 122.943,-225.58 28.001,-12.77 59.175,-13.16 87.081,-18.33 28.229,-5.24 52.198,-13.81 75.515,-17.67 23.876,-3.96 50.326,-5 71.296,11.44 26.05,20.43 44.65,52.41 65.73,80.49 11.52,15.36 23.45,30.27 37.03,43.65 11.48,11.32 23.8,21.26 37.08,29.85 42.23,27.45 93.09,40.08 143.46,49.87 65.78,12.66 135.31,22.18 193.03,57.56 40.53,24.96 71.6,75.11 77.28,121.36 3.22,26.16 -1.13,44.4 -15.2,67 -18.87,30.31 -49.81,51.15 -82.64,66.64 -4.3,2.02 -8.62,3.97 -12.94,5.83 -132.95,57.39 -255.8,47.14 -378.89,20.29 -45.49,-9.93 -91.4,-22.02 -137.013,-36.64 -26.382,-8.45 -50.881,-19.03 -76.155,-28.56 -15.979,-6.02 -32.367,-12.66 -49.376,-19.01 -51.33,-19.09 -100.606,-42.63 -128.867,-86.58 z"
         style="fill:none;stroke:#000000;stroke-width:1.5;stroke-linecap:butt;stroke-linejoin:miter;stroke-miterlimit:10;stroke-dasharray:none;stroke-opacity:1"
         id="path26" />
      <path
         d="m 954.464,2212.25 c -55.931,-8.82 -118.644,-30.55 -138.549,-83.55 -10.898,-29.02 -6.163,-61.46 1.33,-91.54 C 841.075,1941.48 863.5,1858.5 939,1829 c 53,-17 99.16,-5.57 122.95,30.33 23.79,35.91 43.3,76.07 76.84,103.1 41.81,33.7 98.33,41.39 151.85,45.82 53.52,4.43 109.5,7.55 155.83,34.72 46.32,27.16 78.44,87.41 55.04,135.75 -14.04,29 -43.9,46.72 -73.43,59.58 -174.68,76.1 -304.51,0.61 -473.616,-26.05 z"
         style="fill:none;stroke:#000000;stroke-width:1.5;stroke-linecap:butt;stroke-linejoin:miter;stroke-miterlimit:10;stroke-dasharray:none;stroke-opacity:1"
         id="path28"
         inkscape:export-filename="contour_line1.svg"
         inkscape:export-xdpi="96"
         inkscape:export-ydpi="96" />
    </g>
    <g
       id="g2"
       style="stroke-width:1.5;stroke-dasharray:none">
      <path
         d="m 197.275,1485.83 c 101.866,-27.85 145.535,-57.19 243.728,-96.86 85.743,-34.65 154.177,-104.25 236.376,-147.22 109.209,-57.09 236.182,-63.92 358.181,-56.94 121.99,6.98 243.88,26.62 365.79,18.17 121.9,-8.45 247.7,-49.09 330.27,-142.94 82.57,-93.84 107.22,-249.19 32.19,-349.67 -126.78,-169.75 -431.47,-94.48 -542.52,-275.79 -53.51,-87.37 -37.7,-201.39 -11.69,-301.42 26.01,-100.0397 60.61,-203.7897 38.54,-304.85 -23.25,-106.51 -107.98,-190.05 -204.45,-232.8 -96.457,-42.74 -203.802,-50.14 -308.617,-48.87 -123.112,1.5 -354.866,-22.94 -433.348,75.92 C 188.611,-234.97 273.577,-0.6 163.147,144.14 -1.2832,359.68 -89.7383,330.87 -166.749,368.3 c -190.631,92.64 -378.217,46.74 -478.815,239.24 -100.597,192.49 -147.588,767.19 -94.108,855.66 32.63,53.99 137.543,456.93 401.253,489.26 113.151,13.87 292.1569,-246.74 325.7596,-296.36 59.3172,-87.58 109.8914,-142.91 209.9344,-170.27 z"
         style="fill:none;stroke:#000000;stroke-width:1.5;stroke-linecap:butt;stroke-linejoin:miter;stroke-miterlimit:10;stroke-dasharray:none;stroke-opacity:1"
         id="path30"
         inkscape:export-filename="path30.svg"
         inkscape:export-xdpi="96"
         inkscape:export-ydpi="96" />
      <path
         d="m -241.651,1778.65 c 55.413,8.88 130.696,-52.38 192.6651,-117.87 53.59137,-56.64 97.2086,-114.13 112.6203,-134.36 56.8616,-74.67 101.2386,-122.97 196.4516,-148.03 89.12,-23.45 128.144,-49.43 214.105,-83.76 75.282,-30.02 135.772,-90.09 208.044,-127.42 95.983,-49.59 207.163,-56.27 313.914,-51.29 106.881,4.92 213.481,20.49 319.761,11.75 106.64,-9.04 215.98,-46.64 287.26,-129.91 71.33,-83.46 91.86,-219.72 25.33,-307.89 -112.7,-149.27 -377.88,-85.55 -477.24,-242.77 -44.29,-70.14 -37.61,-160.08 -20.27,-242.44 1.39,-6.54 2.85,-13.03 4.36,-19.45 20.52,-87.2799 48.96,-178.16977 29.26,-266.9799 -19.58,-88.3501 -85.87,-159.3001 -163,-199.8101 -4.485,-2.34 -9.008,-4.59 -13.562,-6.74 -82.849,-38.69 -175.271,-47.35 -266.024,-48.71 -106.802,-1.59 -307.701,-25.36 -378.933,59.35 -94.85,112.76 -44.807,299.08 -114.204,427.56 -5.758,10.64 -12.339,20.91 -19.891,30.73 -144.2339,188.26 -222.8105,167.87 -291.764,203.5 -166.413,86 -330.842,51.33 -419.454,222.44 -87.382,167.97 -128.923,664.39 -84.225,744.29 27.596,49.34 118.226,391.5 344.796,427.81 z"
         style="fill:none;stroke:#000000;stroke-width:1.5;stroke-linecap:butt;stroke-linejoin:miter;stroke-miterlimit:10;stroke-dasharray:none;stroke-opacity:1"
         id="path32" />
      <path
         d="m -144.884,1604.84 c 49.8387,10.33 119.9098,-39.51 177.4461,-94.28 50.9477,-48.5 91.8939,-96.12 107.3649,-113.83 53.999,-61.81 92.561,-103.06 182.971,-125.78 76.326,-19.19 110.752,-41.67 184.481,-70.66 64.822,-25.4 117.367,-75.93 179.712,-107.63 82.757,-42.09 178.145,-48.61 269.652,-45.63 91.757,2.86 183.107,14.63 273.727,5.33 91.41,-9.37 184.26,-44.2 244.26,-116.88 60.08,-73.09 76.48,-190.25 18.47,-266.12 -98.63,-128.77 -324.31,-76.61 -411.97,-209.73 -39,-59.36 -35.75,-135.47 -23.3,-205.78 0.99,-5.58 2.06,-11.11 3.17,-16.6 C 1076.12,162.74 1098.42,84.7 1081.08,8.13984 1063.89,-67.8898 1008.2,-129.66 943.737,-166.08 c -3.748,-2.1 -7.521,-4.14 -11.336,-6.07 -69.113,-34.89 -146.748,-44.57 -223.426,-48.55 -90.511,-4.69 -260.537,-27.77 -324.517,42.78 -85.215,93.9302 -49.656,256.5501 -111.866,368.15 -5.193,9.27 -11.085,18.23 -17.748,26.84 C 130.474,377.81 62.1211,366.03 1.2125,399.93 -141.009,479.09 -281.938,456 -358.879,605.57 c -73.864,143.59 -110.291,561.64 -74.344,632.92 22.552,44.72 99.1,327.13 288.339,366.35 z"
         style="fill:none;stroke:#000000;stroke-width:1.5;stroke-linecap:butt;stroke-linejoin:miter;stroke-miterlimit:10;stroke-dasharray:none;stroke-opacity:1"
         id="path34" />
      <path
         d="m -48.116,1431.03 c 44.50116,11.89 109.2746,-26.57 162.226,-70.68 48.424,-40.34 86.461,-78.12 102.111,-93.31 50.609,-49.12 83.849,-83.18 169.489,-103.53 63.482,-15.09 93.36,-33.91 154.857,-57.56 54.361,-20.77 98.962,-61.77 151.38,-87.83 69.53,-34.6 149.126,-40.96 225.389,-39.98 76.641,0.81 152.724,8.61 227.694,-1.08 76.17,-9.85 152.54,-41.76 201.26,-103.86 48.83,-62.71 61.1,-160.77 11.61,-224.34 -84.56,-108.28 -270.73,-67.69 -346.69,-176.7 -33.728,-48.58 -33.804,-110.83 -26.34,-169.13 0.59,-4.61 1.277,-9.19 1.984,-13.73 9.523,-61.76 25.676,-126.94 10.691,-191.25 -14.8,-63.7098 -59.818,-116.4102 -111.681,-148.6301 -3.007,-1.8699 -6.037,-3.6797 -9.11,-5.4 -55.431,-30.9398 -118.247,-41.8 -180.829,-48.3799 -74.246,-7.81 -213.37,-30.2 -270.101,26.2002 C 350.245,-3.06992 371.319,135.86 316.296,230.58 c -4.627,7.91 -9.82,15.55 -15.604,22.95 C 196.39,386.9 138.062,383.49 85.193,415.74 c -118.0899,72.05 -235.631,60.73 -300.73,188.85 -60.525,119.11 -91.712,458.96 -64.461,521.54 17.485,40.15 80.11,264.33 231.882,304.9 z"
         style="fill:none;stroke:#000000;stroke-width:1.5;stroke-linecap:butt;stroke-linejoin:miter;stroke-miterlimit:10;stroke-dasharray:none;stroke-opacity:1"
         id="path36" />
      <path
         d="m 48.652,1257.22 c 39.448,13.68 98.839,-13.52 147.006,-47.09 46.066,-32.1 80.871,-60.15 96.856,-72.78 46.582,-36.79 75.095,-63.39 156.007,-81.29 50.581,-11.19 75.969,-26.14 125.235,-44.45 43.9,-16.14 80.557,-47.61 123.047,-68.04 56.304,-27.1 120.108,-33.3 181.127,-34.32 61.523,-1.25 122.35,2.57 181.67,-7.5 60.93,-10.35 120.96,-39.21 158.25,-90.83 37.72,-52.23 45.73,-131.3 4.75,-182.57 -70.5,-87.78 -217.16,-58.75 -281.419,-143.67 -28.444,-37.8 -31.84,-86.16 -29.369,-132.46 0.194,-3.65 0.488,-7.27 0.792,-10.88 4.028,-48.99 14.038,-101.31 1.408,-153.38 C 901.603,136.57 867.213,93.0301 827.991,64.9102 825.724,63.2902 823.438,61.7 821.108,60.1898 779.368,33.2199 731.327,21.1203 682.875,11.9699 624.848,1 516.67,-20.65 467.19,21.6 401.247,77.85 408.009,193.19 360,270.93 c -4.046,6.55 -8.554,12.88 -13.459,19.06 -84.19,106.03 -132.554,110.83 -177.367,141.57 -94.0802,64.53 -188.1334,65.36 -241.3681,172.04 -47.2209,94.63 -73.2359,356.4 -54.5789,410.17 12.369,35.65 61.0882,203.79 175.425,243.45 z"
         style="fill:none;stroke:#000000;stroke-width:1.5;stroke-linecap:butt;stroke-linejoin:miter;stroke-miterlimit:10;stroke-dasharray:none;stroke-opacity:1"
         id="path38" />
      <path
         d="m 145.419,1083.4 c 31.001,22.23 88.643,-0.23 131.787,-23.48 43.919,-23.68 75.078,-42.36 91.602,-52.26 41.878,-25.07 66.278,-43.79 142.525,-59.04 37.616,-7.53 58.545,-18.47 95.611,-31.35 33.411,-11.6 62.152,-33.45 94.715,-48.24 43.077,-19.61 91.097,-25.53 136.864,-28.67 46.414,-3.19 91.987,-3.52 135.634,-13.92 45.713,-10.9 89.263,-36.76 115.243,-77.8 26.5,-41.85 30.36,-101.82 -2.11,-140.79 -56.42,-67.3 -163.576,-49.82 -216.136,-110.64 -23.162,-27.02 -29.847,-61.47 -32.401,-95.81 -0.198,-2.67 -0.299,-5.35 -0.399,-8.01 -1.468,-36.24 2.397,-75.7 -7.875,-115.52 -10.018,-39.07 -33.778,-73.42 -60.361,-97.46 -1.528,-1.38 -3.068,-2.75 -4.657,-4.05 -28.043,-22.93 -61.365,-36.43 -95.635,-48.06 -41.878,-14.22 -119.04,-35.0398 -161.269,-6.94 -56.308,37.41 -64.029,129.07 -104.852,189.92 -3.48,5.18 -7.285,10.21 -11.316,15.17 -64.004,78.75 -102.556,91.48 -139.235,120.92 -70.326,56.46 -140.677,69.98 -182.006,155.25 -33.9777,70.1 -54.9511,253.96 -44.6964,298.79 7.1429,31.23 36.2808,161.85 118.9674,181.99 z"
         style="fill:none;stroke:#000000;stroke-width:1.5;stroke-linecap:butt;stroke-linejoin:miter;stroke-miterlimit:10;stroke-dasharray:none;stroke-opacity:1"
         id="path40" />
      <path
         d="m 242.187,909.59 c 24.966,25.17 78.656,13.48 116.567,0.11 41.99,-14.8 69.082,-24.98 86.347,-31.72 36.7,-14.34 57.355,-24.67 129.044,-36.8 24.587,-4.17 41.16,-10.7 65.987,-18.24 22.956,-6.98 43.747,-19.3 66.383,-28.46 29.851,-12.1 62.088,-17.89 92.602,-23.01 31.305,-5.26 61.622,-9.73 89.603,-20.34 30.495,-11.56 57.522,-34.34 72.24,-64.77 15.239,-31.5 14.989,-72.35 -8.968,-99.02 -42.354,-46.8 -110.097,-40.78 -150.865,-77.6 -17.922,-16.19 -27.752,-36.74 -35.432,-59.15 -0.584,-1.71 -1.089,-3.43 -1.591,-5.15 -6.963,-23.48 -9.244,-50.09 -17.158,-77.66 -7.627,-26.75 -20.775,-51.87 -34.7,-71.87 -0.791,-1.14 -1.586,-2.28 -2.431,-3.38 -14.391,-18.75 -32.96,-34.05 -53.038,-47.9 -25.75,-17.77 -71.875,-37.46 -106.854,-23.51 -46.673,18.57 -68.922,86.52 -102.514,130.5 -2.917,3.82 -6.009,7.55 -9.172,11.29 -43.677,51.58 -72.84,71.74 -101.102,100.28 -47.145,47.6 -93.341,74.52 -122.645,138.44 -20.863,45.51 -37.033,151.63 -34.814,187.43 1.667,26.87 16.029,102.83 62.511,120.53 z"
         style="fill:none;stroke:#000000;stroke-width:1.5;stroke-linecap:butt;stroke-linejoin:miter;stroke-miterlimit:10;stroke-dasharray:none;stroke-opacity:1"
         id="path42" />
      <path
         d="m 440.302,759.49 c -32.719,4.14 -82.416,4.41 -101.347,-23.71 -22.635,-33.61 4.051,-97.08 18.878,-135.13 30.373,-77.94 76.006,-149.39 133.28,-208.68 26.277,-27.2 63.139,-71.36 100.176,-71.09 48.934,0.36 60.699,56.28 63.084,90.52 2.384,34.25 11.967,67.69 38.264,88.37 43.332,34.09 83.548,29.39 124.053,67.07 29.852,27.76 17.781,82.86 -13.408,108.98 -42.449,35.55 -112.397,52.47 -166.325,57.91 -105.649,10.67 -86,11.75 -196.655,25.76 z"
         style="fill:none;stroke:#000000;stroke-width:1.5;stroke-linecap:butt;stroke-linejoin:miter;stroke-miterlimit:10;stroke-dasharray:none;stroke-opacity:1"
         id="path44" />
    </g>
    <g
       id="g4"
       style="stroke-width:1.5;stroke-dasharray:none">
      <path
         d="m 2182.5,1909.5 c -93,-74 -205,-77 -366,-155 -85.9,-41.61 -164.33,-72.52 -242,-128 -126,-90 -192.1,-161.87 -213,-255 -9,-135 139.52,-101.81 244,-127 104.48,-25.19 162.35,-46.91 228,-132 65.65,-85.09 65.42,-240.62 14,-335 -73,-134 -38.32,-228.47 -12,-264 40,-54 121.26,-88.52 183,-100 156,-29 288.99,72.56 345,136 63.49,71.92 228.43,383.08 370,467 194,115 348.73,108.23 510,141 161.27,32.77 246.22,119.29 308.21,271.74 39.86,98.02 30.35,208.2 45.65,312.9 17.9,122.4 70.37,241.1 62.2,364.53 -12.39,187.05 -168.92,342.76 -347.95,398.36 -220.97,68.63 -614.26,31.28 -769.72,-163.14 -51.45,-64.35 -80.94,-89.4 -114.39,-161.39 -92,-198 -146.68,-192.77 -245,-271 z"
         style="fill:none;stroke:#000000;stroke-width:1.5;stroke-linecap:butt;stroke-linejoin:miter;stroke-miterlimit:10;stroke-dasharray:none;stroke-opacity:1"
         id="path46"
         inkscape:export-filename="path46.svg"
         inkscape:export-xdpi="96"
         inkscape:export-ydpi="96" />
      <path
         d="m 2574.13,2280.93 c -45.91,-55.47 -71.02,-80.06 -100.41,-145.11 -78.7,-174.2 -126.82,-174.66 -213.41,-245.66 -66.05,-54.17 -143.73,-68 -247.3,-105.99 -24.95,-9.14 -51.29,-19.84 -79.2,-33 -76.92,-36.28 -147.45,-63.8 -217.24,-112.61 -111.99,-78.71 -172.53,-142.22 -194.07,-223.92 -11.17,-117.5 112.11,-91.86 198.27,-116.19 86.61,-24.46 134.14,-45.36 188.23,-121.86 19.6,-27.72 31.75,-63.56 37.5,-101.94 10.06,-68.66 -0.24,-145.17 -28.21,-199.48 -61.2,-118.84 -29.6,-202.05 -2.79,-234.53 39.47,-47.81 112.35,-73.88 168.84,-80.43 35.58,-4.13 69.83,-1.67 102.25,5.57 96.02,21.64 170.85,82.67 213.2,127.01 62.81,65.77 213.2,328.56 343.27,399.53 49.91,27.24 96.81,46.75 142.07,61.08 112.87,36.11 214.57,39.48 318.59,61.23 144.59,30.16 222.87,107.98 278.74,244.65 35.21,86.29 27.56,183.14 40.75,275.33 15.42,107.74 59.88,212.35 51.88,320.89 -12.08,164.38 -148.96,300.94 -305.29,352.24 -196.59,64.5 -553.68,44.78 -695.67,-126.81 z"
         style="fill:none;stroke:#000000;stroke-width:1.5;stroke-linecap:butt;stroke-linejoin:miter;stroke-miterlimit:10;stroke-dasharray:none;stroke-opacity:1"
         id="path48" />
      <path
         d="m 2606.36,2219.96 c -40.3,-46.61 -61.1,-70.7 -86.41,-128.82 -65.49,-150.35 -106.98,-156.56 -181.83,-220.33 -57.11,-48.67 -125.13,-62.82 -216.87,-94.92 -22.16,-7.72 -45.49,-16.83 -70.14,-28.06 -67.93,-30.93 -130.65,-54.92 -192.47,-97.21 -98.15,-67.17 -152.97,-122.57 -175.14,-192.83 -13.35,-100.01 84.64,-81.94 152.54,-105.39 68.69,-23.73 105.92,-43.87 148.47,-111.72 15.54,-24.78 24.84,-56.6 28.99,-90.56 7.51,-61.32 -1.37,-128.99 -24.41,-177.28 -49.46,-103.61 -20.98,-175.64 6.41,-205.05 38.8,-41.67 103.34,-59.3 154.67,-60.87 31.65,-0.97 62.22,2.97 91.41,10.81 86.77,23.66 151.59,77.08 194.49,118.34 62.06,59.68 197.87,274.08 316.55,332.08 44.69,21.83 86.66,37.87 127.33,49.94 100.26,29.75 191.43,33.64 284,53.68 127.9,27.54 199.51,96.67 249.26,217.55 30.55,74.56 24.78,158.09 35.85,237.75 12.94,93.09 49.39,183.61 41.57,277.26 -11.77,141.71 -129,259.2 -262.65,306.11 -172.21,60.46 -492.99,58.3 -621.62,-90.48 z"
         style="fill:none;stroke:#000000;stroke-width:1.5;stroke-linecap:butt;stroke-linejoin:miter;stroke-miterlimit:10;stroke-dasharray:none;stroke-opacity:1"
         id="path50" />
      <path
         d="m 2638.59,2158.99 c -34.62,-37.78 -51.2,-61.32 -72.42,-112.52 -52.39,-126.44 -87.12,-138.47 -150.24,-195 -48.18,-43.18 -106.53,-57.64 -186.43,-83.86 -19.38,-6.31 -39.71,-13.82 -61.08,-23.11 -58.96,-25.59 -113.8,-46.13 -167.7,-81.83 -84.22,-55.77 -133.41,-102.91 -156.22,-161.74 -15.52,-82.51 57.08,-72 106.81,-94.59 50.67,-23.01 77.7,-42.47 108.7,-101.57 11.48,-21.88 17.86,-49.66 20.49,-79.17 4.82,-54.02 -2.51,-112.77 -20.62,-155.09 -37.79,-88.28 -12.44,-149.27 15.62,-175.58 37.98,-35.6 94.22,-44.82 140.51,-41.31 27.65,2.11 54.61,7.56 80.55,16.07 77.61,25.46 132.28,71.52 175.8,109.67 61.2,53.65 182.39,219.67 289.82,264.61 39.41,16.49 76.48,29.08 112.59,38.81 87.57,23.6 168.3,27.79 249.4,46.12 111.21,24.93 176.16,85.36 219.79,190.46 25.89,62.83 21.99,133.03 30.94,200.18 10.47,78.43 38.9,154.86 31.27,233.61 -11.46,119.05 -109.04,217.59 -220,260 -147.87,56.5 -432.16,71.8 -547.58,-54.16 z"
         style="fill:none;stroke:#000000;stroke-width:1.5;stroke-linecap:butt;stroke-linejoin:miter;stroke-miterlimit:10;stroke-dasharray:none;stroke-opacity:1"
         id="path52" />
      <path
         d="m 2670.82,2098.02 c -28.84,-29.01 -41.34,-51.9 -58.43,-96.23 -39.47,-102.41 -67.26,-120.36 -118.65,-169.66 -39.24,-37.68 -87.93,-52.47 -155.99,-72.8 -16.6,-4.9 -33.92,-10.82 -52.03,-18.16 -49.97,-20.25 -96.93,-37.36 -142.93,-66.44 -70.25,-44.41 -113.84,-83.26 -137.29,-130.66 -17.7,-65.01 29.3,-62 61.08,-83.78 32.46,-22.25 49.41,-41.23 68.93,-91.43 7.4,-19.04 10.86,-42.72 11.99,-67.79 2.1,-46.73 -3.69,-96.48 -16.83,-132.89 -26.26,-72.81 -4.01,-122.98 24.83,-146.11 36.99,-29.66 85.01,-30.55 126.35,-21.74 23.6,5.03 47,12.19 69.69,21.31 68.4,27.47 112.92,66.03 157.1,101 60.27,47.7 166.72,165.43 263.09,197.15 34.07,11.21 66.29,20.31 97.86,27.69 74.86,17.49 145.16,21.94 214.8,38.55 94.53,22.32 152.81,74.06 190.32,163.37 21.23,51.11 19.2,107.97 26.04,162.61 7.99,63.77 28.41,126.11 20.96,189.97 -11.15,96.39 -89.05,176.16 -177.36,213.87 -123.53,52.74 -371.06,85.26 -473.53,-17.83 z"
         style="fill:none;stroke:#000000;stroke-width:1.5;stroke-linecap:butt;stroke-linejoin:miter;stroke-miterlimit:10;stroke-dasharray:none;stroke-opacity:1"
         id="path54" />
      <path
         d="m 2703.05,2037.06 c -22.88,-20.36 -31.56,-42.44 -44.43,-79.95 -26.86,-78.22 -47.41,-102.26 -87.07,-144.33 -30.3,-32.18 -69.33,-47.29 -125.55,-61.72 -13.82,-3.5 -28.13,-7.82 -42.97,-13.23 -40.99,-14.9 -80.04,-28.6 -118.17,-51.04 -56.23,-33.1 -94.28,-63.61 -118.36,-99.58 -19.87,-47.51 1.11,-51.48 15.34,-72.97 13.91,-20.99 20.94,-40.21 29.18,-81.3 3.26,-16.26 3.83,-35.77 3.48,-56.39 -0.66,-39.45 -4.98,-80.09 -13.04,-110.7 -15.03,-57.12 4.3,-96.81 34.04,-116.64 35.85,-23.89 75.8,-16.61 112.19,-2.17 19.56,7.76 39.37,16.85 58.84,26.55 59.16,29.51 93.48,60.61 138.4,92.34 59.25,41.85 150.81,111.52 236.36,129.68 28.63,6.08 56.09,11.57 83.12,16.56 62.12,11.47 122.02,16.09 180.21,31 77.84,19.7 129.63,62.67 160.84,136.27 16.67,39.34 16.42,82.91 21.14,125.03 5.51,49.12 17.92,97.37 10.65,146.34 -10.84,73.72 -68.99,135.05 -134.71,167.74 -99.16,49.32 -309.52,98.53 -399.49,18.51 z"
         style="fill:none;stroke:#000000;stroke-width:1.5;stroke-linecap:butt;stroke-linejoin:miter;stroke-miterlimit:10;stroke-dasharray:none;stroke-opacity:1"
         id="path56" />
      <path
         d="m 2735.28,1976.09 c -16.65,-11.95 -21.99,-32.87 -30.44,-63.65 -14.78,-53.82 -27.55,-84.17 -55.48,-119 -21.37,-26.69 -50.73,-42.11 -95.11,-50.66 -11.04,-2.09 -22.35,-4.81 -33.92,-8.28 -32.01,-9.56 -63.1,-19.93 -93.4,-35.66 -42.15,-21.88 -74.71,-43.95 -99.43,-68.48 -22.04,-30.02 -26.04,-39.71 -30.39,-62.17 -3.57,-18.47 -8.07,-39.37 -10.59,-71.16 -1.08,-13.57 -3.25,-28.84 -5.02,-45.01 -3.52,-32.17 -6.56,-63.57 -9.24,-88.5 -4.43,-41.18 12.51,-70.86 43.24,-87.16 34.61,-18.36 66.85,-3.09 98.02,17.39 15.66,10.28 31.75,21.51 47.99,31.8 49.91,31.59 74,55.28 119.7,83.66 58.18,36.13 134.74,58.36 209.64,62.23 23.13,1.19 45.87,2.87 68.38,5.42 49.35,5.59 98.88,10.25 145.61,23.44 61.15,17.09 106.26,51.37 131.37,109.18 11.99,27.62 13.63,57.86 16.23,87.46 3.04,34.46 7.44,68.62 0.35,102.69 -10.54,51.06 -48.72,94.5 -92.07,121.63 -74.51,46.62 -247.07,111.02 -325.44,54.83 z"
         style="fill:none;stroke:#000000;stroke-width:1.5;stroke-linecap:butt;stroke-linejoin:miter;stroke-miterlimit:10;stroke-dasharray:none;stroke-opacity:1"
         id="path58" />
      <path
         d="m 2662.5,1734.5 c -59.65,-4.88 -120.83,-33.53 -174,-61 -53.17,-27.47 -122,-78 -140,-146 -15.31,-57.85 -8.7,-102.12 47,-124 49.12,-19.3 80.41,40.26 121,74 40.59,33.74 54.47,50.09 101,75 72.9,39.03 153.86,-10.84 236.56,-10.94 82.69,-0.11 178.57,22.72 212.89,97.96 28.15,61.69 1.12,137.74 -48.05,184.44 -48.23,45.82 -182.64,119.57 -251.39,91.16 -31.72,-13.11 4.99,-171.62 -105.01,-180.62 z"
         style="fill:none;stroke:#000000;stroke-width:1.5;stroke-linecap:butt;stroke-linejoin:miter;stroke-miterlimit:10;stroke-dasharray:none;stroke-opacity:1"
         id="path60" />
    </g>
  </g>
</svg>
