<?xml version="1.0" encoding="UTF-8" standalone="no"?>
<!-- Created with Inkscape (http://www.inkscape.org/) -->

<svg
   version="1.1"
   id="svg2"
   width="882.50586"
   height="1312.6188"
   viewBox="0 0 882.50586 1312.6188"
   sodipodi:docname="vecteezy_abstract-lines-topographical-pattern-background_8070570.svg"
   inkscape:version="1.3 (0e150ed6c4, 2023-07-21)"
   xmlns:inkscape="http://www.inkscape.org/namespaces/inkscape"
   xmlns:sodipodi="http://sodipodi.sourceforge.net/DTD/sodipodi-0.dtd"
   xmlns="http://www.w3.org/2000/svg"
   xmlns:svg="http://www.w3.org/2000/svg">
  <defs
     id="defs6" />
  <sodipodi:namedview
     id="namedview4"
     pagecolor="#ffffff"
     bordercolor="#000000"
     borderopacity="0.25"
     inkscape:showpageshadow="2"
     inkscape:pageopacity="0.0"
     inkscape:pagecheckerboard="0"
     inkscape:deskcolor="#d1d1d1"
     inkscape:zoom="0.16448519"
     inkscape:cx="2127.8511"
     inkscape:cy="1674.9228"
     inkscape:window-width="1920"
     inkscape:window-height="991"
     inkscape:window-x="-9"
     inkscape:window-y="-9"
     inkscape:window-maximized="1"
     inkscape:current-layer="g8" />
  <g
     id="g8"
     inkscape:groupmode="layer"
     inkscape:label="ink_ext_XXXXXX"
     transform="matrix(1.3333333,0,0,-1.3333333,-4754.5825,2998.4033)">
    <g
       id="g4"
       style="stroke-width:1.5;stroke-dasharray:none"
       inkscape:export-filename="g4.svg"
       inkscape:export-xdpi="96"
       inkscape:export-ydpi="96">
      <path
         d="m 2182.5,1909.5 c -93,-74 -205,-77 -366,-155 -85.9,-41.61 -164.33,-72.52 -242,-128 -126,-90 -192.1,-161.87 -213,-255 -9,-135 139.52,-101.81 244,-127 104.48,-25.19 162.35,-46.91 228,-132 65.65,-85.09 65.42,-240.62 14,-335 -73,-134 -38.32,-228.47 -12,-264 40,-54 121.26,-88.52 183,-100 156,-29 288.99,72.56 345,136 63.49,71.92 228.43,383.08 370,467 194,115 348.73,108.23 510,141 161.27,32.77 246.22,119.29 308.21,271.74 39.86,98.02 30.35,208.2 45.65,312.9 17.9,122.4 70.37,241.1 62.2,364.53 -12.39,187.05 -168.92,342.76 -347.95,398.36 -220.97,68.63 -614.26,31.28 -769.72,-163.14 -51.45,-64.35 -80.94,-89.4 -114.39,-161.39 -92,-198 -146.68,-192.77 -245,-271 z"
         style="fill:none;stroke:#000000;stroke-width:1.5;stroke-linecap:butt;stroke-linejoin:miter;stroke-miterlimit:10;stroke-dasharray:none;stroke-opacity:1"
         id="path46"
         inkscape:export-filename="path46.svg"
         inkscape:export-xdpi="96"
         inkscape:export-ydpi="96" />
      <path
         d="m 2574.13,2280.93 c -45.91,-55.47 -71.02,-80.06 -100.41,-145.11 -78.7,-174.2 -126.82,-174.66 -213.41,-245.66 -66.05,-54.17 -143.73,-68 -247.3,-105.99 -24.95,-9.14 -51.29,-19.84 -79.2,-33 -76.92,-36.28 -147.45,-63.8 -217.24,-112.61 -111.99,-78.71 -172.53,-142.22 -194.07,-223.92 -11.17,-117.5 112.11,-91.86 198.27,-116.19 86.61,-24.46 134.14,-45.36 188.23,-121.86 19.6,-27.72 31.75,-63.56 37.5,-101.94 10.06,-68.66 -0.24,-145.17 -28.21,-199.48 -61.2,-118.84 -29.6,-202.05 -2.79,-234.53 39.47,-47.81 112.35,-73.88 168.84,-80.43 35.58,-4.13 69.83,-1.67 102.25,5.57 96.02,21.64 170.85,82.67 213.2,127.01 62.81,65.77 213.2,328.56 343.27,399.53 49.91,27.24 96.81,46.75 142.07,61.08 112.87,36.11 214.57,39.48 318.59,61.23 144.59,30.16 222.87,107.98 278.74,244.65 35.21,86.29 27.56,183.14 40.75,275.33 15.42,107.74 59.88,212.35 51.88,320.89 -12.08,164.38 -148.96,300.94 -305.29,352.24 -196.59,64.5 -553.68,44.78 -695.67,-126.81 z"
         style="fill:none;stroke:#000000;stroke-width:1.5;stroke-linecap:butt;stroke-linejoin:miter;stroke-miterlimit:10;stroke-dasharray:none;stroke-opacity:1"
         id="path48" />
      <path
         d="m 2606.36,2219.96 c -40.3,-46.61 -61.1,-70.7 -86.41,-128.82 -65.49,-150.35 -106.98,-156.56 -181.83,-220.33 -57.11,-48.67 -125.13,-62.82 -216.87,-94.92 -22.16,-7.72 -45.49,-16.83 -70.14,-28.06 -67.93,-30.93 -130.65,-54.92 -192.47,-97.21 -98.15,-67.17 -152.97,-122.57 -175.14,-192.83 -13.35,-100.01 84.64,-81.94 152.54,-105.39 68.69,-23.73 105.92,-43.87 148.47,-111.72 15.54,-24.78 24.84,-56.6 28.99,-90.56 7.51,-61.32 -1.37,-128.99 -24.41,-177.28 -49.46,-103.61 -20.98,-175.64 6.41,-205.05 38.8,-41.67 103.34,-59.3 154.67,-60.87 31.65,-0.97 62.22,2.97 91.41,10.81 86.77,23.66 151.59,77.08 194.49,118.34 62.06,59.68 197.87,274.08 316.55,332.08 44.69,21.83 86.66,37.87 127.33,49.94 100.26,29.75 191.43,33.64 284,53.68 127.9,27.54 199.51,96.67 249.26,217.55 30.55,74.56 24.78,158.09 35.85,237.75 12.94,93.09 49.39,183.61 41.57,277.26 -11.77,141.71 -129,259.2 -262.65,306.11 -172.21,60.46 -492.99,58.3 -621.62,-90.48 z"
         style="fill:none;stroke:#000000;stroke-width:1.5;stroke-linecap:butt;stroke-linejoin:miter;stroke-miterlimit:10;stroke-dasharray:none;stroke-opacity:1"
         id="path50" />
      <path
         d="m 2638.59,2158.99 c -34.62,-37.78 -51.2,-61.32 -72.42,-112.52 -52.39,-126.44 -87.12,-138.47 -150.24,-195 -48.18,-43.18 -106.53,-57.64 -186.43,-83.86 -19.38,-6.31 -39.71,-13.82 -61.08,-23.11 -58.96,-25.59 -113.8,-46.13 -167.7,-81.83 -84.22,-55.77 -133.41,-102.91 -156.22,-161.74 -15.52,-82.51 57.08,-72 106.81,-94.59 50.67,-23.01 77.7,-42.47 108.7,-101.57 11.48,-21.88 17.86,-49.66 20.49,-79.17 4.82,-54.02 -2.51,-112.77 -20.62,-155.09 -37.79,-88.28 -12.44,-149.27 15.62,-175.58 37.98,-35.6 94.22,-44.82 140.51,-41.31 27.65,2.11 54.61,7.56 80.55,16.07 77.61,25.46 132.28,71.52 175.8,109.67 61.2,53.65 182.39,219.67 289.82,264.61 39.41,16.49 76.48,29.08 112.59,38.81 87.57,23.6 168.3,27.79 249.4,46.12 111.21,24.93 176.16,85.36 219.79,190.46 25.89,62.83 21.99,133.03 30.94,200.18 10.47,78.43 38.9,154.86 31.27,233.61 -11.46,119.05 -109.04,217.59 -220,260 -147.87,56.5 -432.16,71.8 -547.58,-54.16 z"
         style="fill:none;stroke:#000000;stroke-width:1.5;stroke-linecap:butt;stroke-linejoin:miter;stroke-miterlimit:10;stroke-dasharray:none;stroke-opacity:1"
         id="path52" />
      <path
         d="m 2670.82,2098.02 c -28.84,-29.01 -41.34,-51.9 -58.43,-96.23 -39.47,-102.41 -67.26,-120.36 -118.65,-169.66 -39.24,-37.68 -87.93,-52.47 -155.99,-72.8 -16.6,-4.9 -33.92,-10.82 -52.03,-18.16 -49.97,-20.25 -96.93,-37.36 -142.93,-66.44 -70.25,-44.41 -113.84,-83.26 -137.29,-130.66 -17.7,-65.01 29.3,-62 61.08,-83.78 32.46,-22.25 49.41,-41.23 68.93,-91.43 7.4,-19.04 10.86,-42.72 11.99,-67.79 2.1,-46.73 -3.69,-96.48 -16.83,-132.89 -26.26,-72.81 -4.01,-122.98 24.83,-146.11 36.99,-29.66 85.01,-30.55 126.35,-21.74 23.6,5.03 47,12.19 69.69,21.31 68.4,27.47 112.92,66.03 157.1,101 60.27,47.7 166.72,165.43 263.09,197.15 34.07,11.21 66.29,20.31 97.86,27.69 74.86,17.49 145.16,21.94 214.8,38.55 94.53,22.32 152.81,74.06 190.32,163.37 21.23,51.11 19.2,107.97 26.04,162.61 7.99,63.77 28.41,126.11 20.96,189.97 -11.15,96.39 -89.05,176.16 -177.36,213.87 -123.53,52.74 -371.06,85.26 -473.53,-17.83 z"
         style="fill:none;stroke:#000000;stroke-width:1.5;stroke-linecap:butt;stroke-linejoin:miter;stroke-miterlimit:10;stroke-dasharray:none;stroke-opacity:1"
         id="path54" />
      <path
         d="m 2703.05,2037.06 c -22.88,-20.36 -31.56,-42.44 -44.43,-79.95 -26.86,-78.22 -47.41,-102.26 -87.07,-144.33 -30.3,-32.18 -69.33,-47.29 -125.55,-61.72 -13.82,-3.5 -28.13,-7.82 -42.97,-13.23 -40.99,-14.9 -80.04,-28.6 -118.17,-51.04 -56.23,-33.1 -94.28,-63.61 -118.36,-99.58 -19.87,-47.51 1.11,-51.48 15.34,-72.97 13.91,-20.99 20.94,-40.21 29.18,-81.3 3.26,-16.26 3.83,-35.77 3.48,-56.39 -0.66,-39.45 -4.98,-80.09 -13.04,-110.7 -15.03,-57.12 4.3,-96.81 34.04,-116.64 35.85,-23.89 75.8,-16.61 112.19,-2.17 19.56,7.76 39.37,16.85 58.84,26.55 59.16,29.51 93.48,60.61 138.4,92.34 59.25,41.85 150.81,111.52 236.36,129.68 28.63,6.08 56.09,11.57 83.12,16.56 62.12,11.47 122.02,16.09 180.21,31 77.84,19.7 129.63,62.67 160.84,136.27 16.67,39.34 16.42,82.91 21.14,125.03 5.51,49.12 17.92,97.37 10.65,146.34 -10.84,73.72 -68.99,135.05 -134.71,167.74 -99.16,49.32 -309.52,98.53 -399.49,18.51 z"
         style="fill:none;stroke:#000000;stroke-width:1.5;stroke-linecap:butt;stroke-linejoin:miter;stroke-miterlimit:10;stroke-dasharray:none;stroke-opacity:1"
         id="path56" />
      <path
         d="m 2735.28,1976.09 c -16.65,-11.95 -21.99,-32.87 -30.44,-63.65 -14.78,-53.82 -27.55,-84.17 -55.48,-119 -21.37,-26.69 -50.73,-42.11 -95.11,-50.66 -11.04,-2.09 -22.35,-4.81 -33.92,-8.28 -32.01,-9.56 -63.1,-19.93 -93.4,-35.66 -42.15,-21.88 -74.71,-43.95 -99.43,-68.48 -22.04,-30.02 -26.04,-39.71 -30.39,-62.17 -3.57,-18.47 -8.07,-39.37 -10.59,-71.16 -1.08,-13.57 -3.25,-28.84 -5.02,-45.01 -3.52,-32.17 -6.56,-63.57 -9.24,-88.5 -4.43,-41.18 12.51,-70.86 43.24,-87.16 34.61,-18.36 66.85,-3.09 98.02,17.39 15.66,10.28 31.75,21.51 47.99,31.8 49.91,31.59 74,55.28 119.7,83.66 58.18,36.13 134.74,58.36 209.64,62.23 23.13,1.19 45.87,2.87 68.38,5.42 49.35,5.59 98.88,10.25 145.61,23.44 61.15,17.09 106.26,51.37 131.37,109.18 11.99,27.62 13.63,57.86 16.23,87.46 3.04,34.46 7.44,68.62 0.35,102.69 -10.54,51.06 -48.72,94.5 -92.07,121.63 -74.51,46.62 -247.07,111.02 -325.44,54.83 z"
         style="fill:none;stroke:#000000;stroke-width:1.5;stroke-linecap:butt;stroke-linejoin:miter;stroke-miterlimit:10;stroke-dasharray:none;stroke-opacity:1"
         id="path58" />
      <path
         d="m 2662.5,1734.5 c -59.65,-4.88 -120.83,-33.53 -174,-61 -53.17,-27.47 -122,-78 -140,-146 -15.31,-57.85 -8.7,-102.12 47,-124 49.12,-19.3 80.41,40.26 121,74 40.59,33.74 54.47,50.09 101,75 72.9,39.03 153.86,-10.84 236.56,-10.94 82.69,-0.11 178.57,22.72 212.89,97.96 28.15,61.69 1.12,137.74 -48.05,184.44 -48.23,45.82 -182.64,119.57 -251.39,91.16 -31.72,-13.11 4.99,-171.62 -105.01,-180.62 z"
         style="fill:none;stroke:#000000;stroke-width:1.5;stroke-linecap:butt;stroke-linejoin:miter;stroke-miterlimit:10;stroke-dasharray:none;stroke-opacity:1"
         id="path60" />
    </g>
    <g
       id="g5"
       style="stroke-width:1.5;stroke-dasharray:none">
      <path
         d="m 3643.5,1762.5 c -29.74,-111.61 -39.24,-277.9 -68.99,-389.51 -7.92,-29.73 -14.71,-65.01 5.36,-88.33 21.8,-25.35 61.49,-21.08 94.29,-14.62 62.78,12.37 125.56,24.74 188.34,37.1 48.38,9.53 97.86,19.47 140.17,44.79 60.57,36.24 99.28,99.51 131.67,162.22 65.59,127.02 116.08,272.68 81.51,411.39 -24.17,97.03 -89.94,181.95 -175.13,234.3 -44.86,27.57 -94.9,46.28 -146.54,56.24 -33.98,6.55 -139.66,50.06 -168.68,23.42 -28.87,-26.5 -15.58,-194.39 -28,-252 -14.39,-66.77 -36.42,-159.02 -54,-225 z"
         style="fill:none;stroke:#000000;stroke-width:1.5;stroke-linecap:butt;stroke-linejoin:miter;stroke-miterlimit:10;stroke-dasharray:none;stroke-opacity:1"
         id="path88"
         inkscape:export-filename="path88.svg"
         inkscape:export-xdpi="96"
         inkscape:export-ydpi="96" />
      <path
         d="m 3884.3,2142.52 c -29.08,3.28 -115.45,36.06 -140.13,12.4 -25.46,-24.4 -16.61,-162.38 -27.94,-212.23 -12.78,-56.8 -31.28,-134.14 -45.78,-190.52 -6.97,-27.06 -12.53,-57.66 -17.43,-89.8 -12.33,-81.12 -19.82,-172.51 -34.11,-239.48 -5.3,-24.83 -9.61,-53.86 7.85,-73.03 18.88,-20.79 52.13,-17.49 79.86,-12.16 53,10.19 106.17,20.6 158.72,32.6 44.57,10.18 88.89,23.68 126.5,48.82 49.34,32.97 81.98,85.65 108.3,139.08 35.79,72.63 64.9,152.18 71.47,231.95 3.16,38.35 0.96,77.73 -8.9,116.73 -20.88,82.58 -75.53,156.72 -146.9,199.2 -40.26,23.96 -87.4,31.34 -131.51,36.44 z"
         style="fill:none;stroke:#000000;stroke-width:1.5;stroke-linecap:butt;stroke-linejoin:miter;stroke-miterlimit:10;stroke-dasharray:none;stroke-opacity:1"
         id="path90" />
      <path
         d="m 3874.43,2068.95 c -24.19,0.09 -91.23,22.04 -111.59,1.4 -22.04,-22.33 -17.74,-130.36 -27.89,-172.46 -11.28,-46.82 -26.13,-109.27 -37.56,-156.05 -5.48,-22.39 -9.79,-47.45 -13.47,-73.67 -9.27,-66.43 -13.33,-141.29 -20.61,-195.38 -2.69,-19.93 -4.52,-42.72 10.34,-57.72 15.96,-16.24 42.76,-13.91 65.43,-9.71 43.22,8.01 86.76,16.75 129.11,28.1 40.78,10.93 79.9,27.68 112.82,52.84 38.28,29.25 64.67,71.79 84.93,115.95 27.54,59.99 48.57,125.41 52.43,190.64 1.8,30.5 -0.44,62.93 -8.81,95.33 -17.57,68.12 -61.2,131.37 -118.67,164.1 -35.68,20.34 -79.89,16.5 -116.46,16.63 z"
         style="fill:none;stroke:#000000;stroke-width:1.5;stroke-linecap:butt;stroke-linejoin:miter;stroke-miterlimit:10;stroke-dasharray:none;stroke-opacity:1"
         id="path92" />
      <path
         d="m 3864.55,1995.39 c -19.31,-3.16 -66.96,7.96 -83.05,-9.62 -18.57,-20.3 -18.79,-98.35 -27.82,-132.69 -9.69,-36.85 -21,-84.39 -29.34,-121.56 -4,-17.73 -7.05,-37.26 -9.51,-57.56 -6.21,-51.73 -6.89,-110.01 -7.12,-151.26 -0.09,-15.01 0.6,-31.54 12.83,-42.43 13.08,-11.65 33.39,-10.32 51,-7.26 33.44,5.84 67.3,13.27 99.5,23.61 37,11.88 70.98,31.34 99.13,56.86 27.52,24.94 47.38,57.94 61.58,92.81 19.29,47.35 32.29,98.62 33.37,149.33 0.49,22.65 -1.83,48.13 -8.71,73.94 -14.27,53.67 -47.01,105.81 -90.43,129 -31.16,16.65 -72.42,1.58 -101.43,-3.17 z"
         style="fill:none;stroke:#000000;stroke-width:1.5;stroke-linecap:butt;stroke-linejoin:miter;stroke-miterlimit:10;stroke-dasharray:none;stroke-opacity:1"
         id="path94" />
      <path
         d="m 3854.67,1921.82 c -14.43,-6.44 -42.63,-6.16 -54.5,-20.62 -15.05,-18.34 -19.8,-66.36 -27.76,-92.92 -8.06,-26.9 -15.86,-59.52 -21.13,-87.09 -2.5,-13.06 -4.3,-27.05 -5.55,-41.43 -3.15,-37.04 -0.58,-78.69 6.37,-107.16 2.46,-10.06 5.7,-20.39 15.33,-27.12 10.15,-7.1 24.03,-6.75 36.57,-4.81 23.67,3.66 47.71,10.23 69.88,19.11 33.11,13.26 62.5,34.41 85.46,60.88 17.29,19.94 30.08,44.09 38.21,69.68 11.04,34.71 16.17,71.79 14.33,108.01 -0.75,14.79 -3.23,33.34 -8.62,52.55 -10.96,39.21 -33.01,79.94 -62.19,93.91 -26.75,12.8 -64.94,-13.41 -86.4,-22.99 z"
         style="fill:none;stroke:#000000;stroke-width:1.5;stroke-linecap:butt;stroke-linejoin:miter;stroke-miterlimit:10;stroke-dasharray:none;stroke-opacity:1"
         id="path96" />
      <path
         d="m 3776.64,1685.55 c -0.12,-29.84 9.6,-64.79 37.68,-74.87 20.59,-7.39 43.27,1.66 62.41,12.26 28.6,15.83 55.85,36.36 71.77,64.9 18.91,33.9 19.57,75.59 10.14,113.24 -5.17,20.61 -20.3,81.92 -42.48,89.96 -22.64,8.22 -57.4,-28.44 -71.36,-42.78 -41.93,-43.09 -67.92,-102.32 -68.16,-162.71 z"
         style="fill:none;stroke:#000000;stroke-width:1.5;stroke-linecap:butt;stroke-linejoin:miter;stroke-miterlimit:10;stroke-dasharray:none;stroke-opacity:1"
         id="path98" />
    </g>
  </g>
</svg>
