<?xml version="1.0" encoding="UTF-8" standalone="no"?>
<!-- Generator: Adobe Illustrator 16.0.0, SVG Export Plug-In . SVG Version: 6.00 Build 0)  -->

<svg
   version="1.1"
   x="0px"
   y="0px"
   width="252.07767"
   height="214.99771"
   viewBox="0 0 252.07766 214.99771"
   enable-background="new 0 0 2266.018 1821.959"
   xml:space="preserve"
   id="svg94"
   xmlns="http://www.w3.org/2000/svg"
   xmlns:svg="http://www.w3.org/2000/svg"><defs
   id="defs94" />&#10;&#10;&#10;&#10;&#10;<g
   id="레이어_5"
   transform="translate(-333.2194,-48.025455)">&#10;	&#10;	<g
   id="g94">&#10;		<g
   id="g71">&#10;			<g
   id="g70">&#10;				<path
   d="m 413.671,190.895 c -14.257,7.9 -31.015,9.684 -39.568,25.241 -5.795,10.54 -12.602,21.823 -16.265,33.332 -4.33,13.601 16.981,19.376 21.281,5.867 0.244,-0.765 1.089,-2.687 -0.267,0.476 0.403,-0.939 0.837,-1.866 1.268,-2.793 1.162,-2.505 2.384,-4.983 3.606,-7.458 2.793,-5.652 5.667,-11.267 8.643,-16.826 0.485,-0.907 0.98,-1.809 1.48,-2.707 0.169,-0.303 1.898,-2.819 0.807,-1.512 1.786,-2.139 4.673,-3.516 8.063,-5.098 7.026,-3.279 15.063,-5.571 22.09,-9.465 12.45,-6.899 1.32,-25.962 -11.138,-19.057 z"
   id="path69" />&#10;			</g>&#10;		</g>&#10;		<g
   id="g73">&#10;			<g
   id="g72">&#10;				<path
   d="m 522.842,124.556 c 9.521,-7.912 23.906,-9.825 35.511,-6.201 9.083,2.836 12.938,-11.369 3.912,-14.188 -16.899,-5.277 -36.277,-1.274 -49.827,9.984 -7.305,6.071 3.164,16.421 10.404,10.405 z"
   id="path71" />&#10;			</g>&#10;		</g>&#10;		<g
   id="g75">&#10;			<g
   id="g74">&#10;				<path
   d="m 387.199,118.761 c -8.855,0.066 -15.084,-9.783 -18.974,-16.825 -4.506,-8.158 -8.114,-18.106 -8.247,-27.315 -0.136,-9.48 -14.85,-9.493 -14.713,0 0.184,12.82 5.139,25.869 11.448,36.859 6.368,11.095 16.77,22.097 30.485,21.995 9.486,-0.071 9.492,-14.785 0.001,-14.714 z"
   id="path73" />&#10;			</g>&#10;		</g>&#10;		<g
   id="g77">&#10;			<g
   id="g76">&#10;				<path
   d="m 464.084,207.88 c 5.643,15.311 22.743,22.515 37.055,27.47 14.339,4.965 32.042,9.164 47.143,5.467 13.819,-3.384 7.956,-24.667 -5.867,-21.282 -0.696,0.17 -3.923,0.625 -0.697,0.244 -1.129,0.133 -2.268,0.169 -3.402,0.202 -2.98,0.085 -5.969,-0.163 -8.929,-0.48 -1.323,-0.161 -1.437,-0.172 -0.339,-0.034 -0.748,-0.111 -1.495,-0.229 -2.241,-0.355 -1.928,-0.316 -3.843,-0.711 -5.753,-1.122 -3.563,-0.766 -7.08,-1.731 -10.565,-2.791 -7.201,-2.188 -11.351,-3.85 -17.671,-7.454 -1.18,-0.672 -2.317,-1.413 -3.445,-2.168 -0.529,-0.362 -1.052,-0.736 -1.565,-1.122 2.01,1.474 -0.254,-0.324 -0.542,-0.585 -0.813,-0.736 -1.545,-1.553 -2.251,-2.39 2.338,2.771 -1.087,-3.373 0.353,0.534 -2.078,-5.639 -7.403,-9.405 -13.574,-7.708 -5.433,1.493 -9.792,7.925 -7.71,13.574 z"
   id="path75" />&#10;			</g>&#10;		</g>&#10;		&#10;			<path
   fill="#ff2463"
   stroke="#000000"
   stroke-width="7.3568"
   stroke-linecap="round"
   stroke-linejoin="round"
   stroke-miterlimit="10"
   d="M 527.831,124.669 C 512.506,84.836 470.893,61.527 429.176,71.867 c -1.056,0.208 -2.108,0.479 -3.152,0.829 -1.125,0.325 -2.21,0.724 -3.271,1.164 -19.18,7.142 -37.526,20.612 -45.683,39.868 -8.465,19.995 -9.703,41.804 -2.216,62.445 6.767,18.651 19.345,37.348 37.9,45.901 19.904,9.173 44.082,10.878 64.908,3.471 19.468,-6.924 37.139,-19.883 46.793,-38.521 9.924,-19.157 11.122,-42.217 3.376,-62.355 z m -74.467,44.205 c -2.77,0.221 -5.551,0.147 -8.321,0.014 -0.954,-0.195 -1.912,-0.381 -2.854,-0.63 -0.615,-0.163 -1.225,-0.342 -1.83,-0.53 -0.123,-0.064 -0.217,-0.113 -0.355,-0.184 -0.17,-0.11 -0.292,-0.186 -0.436,-0.278 -0.311,-0.291 -0.641,-0.559 -0.942,-0.858 -0.697,-0.69 -1.353,-1.419 -2.005,-2.149 -0.966,-1.437 -1.838,-2.932 -2.646,-4.464 0.116,-0.002 -1.697,-4.268 -2.098,-5.647 -0.289,-0.989 -0.734,-3.631 -0.996,-5.055 -0.056,-1.578 -0.048,-3.159 -0.01,-4.737 0.019,-0.223 0.033,-0.424 0.046,-0.61 0.224,-0.951 0.476,-1.894 0.731,-2.835 0.104,-0.299 0.188,-0.552 0.264,-0.782 0.137,-0.252 0.27,-0.508 0.411,-0.756 0.228,-0.395 0.5,-0.76 0.741,-1.146 0.271,-0.297 0.604,-0.665 1.055,-1.18 0.859,-0.884 1.775,-1.707 2.693,-2.527 0.119,-0.083 0.211,-0.146 0.343,-0.238 1.299,-0.832 2.634,-1.603 4.004,-2.313 0.02,-0.011 0.032,-0.019 0.053,-0.029 0.289,-0.088 0.634,-0.198 1.051,-0.337 1.086,-0.314 3.916,-0.875 5.135,-1.175 1.229,-0.038 2.459,-0.037 3.685,-0.022 0.543,0.016 1.083,0.073 1.622,0.105 1.121,0.229 2.227,0.51 3.322,0.834 0.846,0.366 3.848,1.547 5.006,2.202 0.783,0.463 1.539,0.971 2.296,1.474 1.35,1.204 2.603,2.508 3.808,3.856 -3.401,-3.777 1.467,2.648 2.886,5.041 0.366,1.068 0.729,2.138 1.034,3.226 0.303,1.079 0.545,2.173 0.778,3.268 0.042,0.794 0.06,1.588 0.048,2.384 -0.141,0.45 -0.531,3.109 -0.928,4.771 -0.346,0.646 -0.675,1.303 -1.054,1.931 -0.219,0.36 -0.472,0.697 -0.7,1.05 -0.11,0.126 -0.202,0.229 -0.333,0.378 -0.707,0.78 -2.939,2.61 -3.927,3.459 -1.305,0.811 -2.649,1.558 -4.017,2.262 1.59,-0.879 -3.604,1.319 -5.092,1.715 -0.817,0.201 -1.644,0.347 -2.468,0.512 z"
   id="path77" />&#10;		<g
   id="XMLID_4_">&#10;			<g
   id="g78">&#10;				<path
   fill="#ffffff"
   d="m 441.015,82.239 c 0.324,6.733 -0.744,14.783 -4.635,20.524 -3.167,4.673 -8.564,9.938 -14.516,7.401 -10.758,-4.578 -13.257,-20.944 -12.876,-31.053 0.248,-6.638 1.794,-14.439 5.913,-19.818 1.374,-1.793 3.281,-2.995 5.418,-3.643 4.921,-1.469 11.006,0.095 14.306,4.349 4.559,5.894 6.027,14.992 6.39,22.24 z"
   id="path78" />&#10;			</g>&#10;			<g
   id="g79">&#10;				&#10;					<path
   fill="none"
   stroke="#000000"
   stroke-width="7.3568"
   stroke-linecap="round"
   stroke-linejoin="round"
   stroke-miterlimit="10"
   d="m 420.319,55.649 c -2.137,0.648 -4.044,1.85 -5.418,3.643 -4.119,5.379 -5.665,13.181 -5.913,19.818 -0.381,10.109 2.118,26.476 12.876,31.053 5.951,2.537 11.349,-2.728 14.516,-7.401 3.891,-5.741 4.959,-13.791 4.635,-20.524 -0.362,-7.249 -1.831,-16.347 -6.39,-22.241 -3.3,-4.252 -9.385,-5.816 -14.306,-4.348 z"
   id="path79" />&#10;			</g>&#10;		</g>&#10;		<g
   id="XMLID_3_">&#10;			<g
   id="g80">&#10;				<path
   fill="#ffffff"
   d="m 471.178,82.73 c 0.324,6.733 -0.744,14.783 -4.636,20.524 -3.166,4.673 -8.564,9.938 -14.516,7.401 -10.758,-4.578 -13.257,-20.944 -12.875,-31.053 0.248,-6.638 1.793,-14.439 5.913,-19.818 1.373,-1.793 3.281,-2.995 5.417,-3.643 4.922,-1.469 11.006,0.095 14.306,4.349 4.56,5.893 6.028,14.991 6.391,22.24 z"
   id="path80" />&#10;			</g>&#10;			<g
   id="g81">&#10;				&#10;					<path
   fill="none"
   stroke="#000000"
   stroke-width="7.3568"
   stroke-linecap="round"
   stroke-linejoin="round"
   stroke-miterlimit="10"
   d="m 450.481,56.14 c -2.136,0.648 -4.044,1.85 -5.417,3.643 -4.12,5.379 -5.665,13.181 -5.913,19.818 -0.382,10.109 2.117,26.476 12.875,31.053 5.951,2.537 11.35,-2.728 14.516,-7.401 3.892,-5.741 4.96,-13.791 4.636,-20.524 -0.362,-7.249 -1.831,-16.347 -6.391,-22.241 -3.3,-4.253 -9.384,-5.817 -14.306,-4.348 z"
   id="path81" />&#10;			</g>&#10;		</g>&#10;		<g
   id="g83">&#10;			<g
   id="g82">&#10;				<path
   d="m 408.518,84.155 c 2.901,0.506 5.761,1.6 8.61,2.344 5.06,1.322 10.388,0.979 15.569,0.854 12.36,-0.3 24.757,-0.218 36.629,-4.179 4.478,-1.493 2.558,-8.6 -1.955,-7.094 -10.731,3.58 -21.777,3.609 -32.953,3.872 -5.047,0.118 -10.394,0.674 -15.335,-0.547 -2.867,-0.708 -5.701,-1.837 -8.61,-2.344 -4.639,-0.809 -6.623,6.28 -1.955,7.094 z"
   id="path82" />&#10;			</g>&#10;		</g>&#10;		<g
   id="g85">&#10;			<g
   id="g84">&#10;				<path
   d="m 419.681,87.472 c 0.14,0.458 0.228,0.928 0.311,1.399 0.056,0.313 0.101,0.628 0.146,0.942 -0.121,-0.827 0.069,0.584 0.086,0.727 0.129,1.094 0.277,2.207 0.306,3.31 0.124,4.735 7.481,4.747 7.357,0 -0.07,-2.699 -0.324,-5.755 -1.112,-8.334 -1.382,-4.524 -8.484,-2.594 -7.094,1.956 z"
   id="path83" />&#10;			</g>&#10;		</g>&#10;		<g
   id="g87">&#10;			<g
   id="g86">&#10;				<path
   d="m 449.107,84.044 c -0.572,3.362 -0.285,7.685 1.928,10.446 1.255,1.567 3.901,1.301 5.201,0 1.534,-1.534 1.253,-3.639 0,-5.202 0.234,0.292 0.839,1.657 0.497,0.625 -0.164,-0.497 -0.272,-1.013 -0.376,-1.525 -0.046,-0.237 -0.087,-0.475 -0.122,-0.713 0.116,0.729 -0.019,-0.491 -0.021,-0.52 -0.013,-0.249 -0.018,-0.497 -0.015,-0.746 -0.001,-0.108 0.143,-1.242 10e-4,-0.409 0.336,-1.975 -0.493,-3.954 -2.569,-4.525 -1.783,-0.491 -4.187,0.59 -4.524,2.569 z"
   id="path85" />&#10;			</g>&#10;		</g>&#10;		<g
   id="g89">&#10;			<g
   id="g88">&#10;				<path
   d="m 465.538,119.847 c -2.278,12.854 14.819,10.276 21.996,7.468 9.603,-3.757 19.688,-13.972 9.164,-23.069 -3.569,-3.086 -8.797,2.094 -5.201,5.202 5.584,4.827 -1.147,8.78 -5.918,10.772 -1.71,0.714 -13.301,3.577 -12.947,1.583 0.822,-4.638 -6.267,-6.621 -7.094,-1.956 z"
   id="path87" />&#10;			</g>&#10;		</g>&#10;		<g
   id="g91">&#10;			<path
   fill="#ffffff"
   d="m 363.344,78.055 c 14.539,-12.6 -4.846,-34.891 -20.354,-23.261 -17.445,13.57 5.817,36.831 20.354,23.261"
   id="path89" />&#10;			<g
   id="g90">&#10;				<path
   d="m 365.944,80.656 c 8.119,-7.507 7.748,-18.686 0.451,-26.614 -7.91,-8.595 -20.798,-7.58 -28.545,0.495 -7.15,7.452 -5.486,18.358 1.344,25.298 7.459,7.579 18.915,7.697 26.75,0.821 3.573,-3.135 -1.651,-8.317 -5.201,-5.202 -9.924,8.708 -26.703,-5.064 -17.691,-15.715 10.465,-12.368 29.749,4.566 17.691,15.715 -3.49,3.227 1.725,8.417 5.201,5.202 z"
   id="path90" />&#10;			</g>&#10;		</g>&#10;		<g
   id="g93">&#10;			<path
   fill="#ffffff"
   d="m 576.69,123.966 c 14.538,-12.6 -4.847,-34.892 -20.354,-23.261 -17.445,13.569 5.816,36.831 20.354,23.261"
   id="path91" />&#10;			<g
   id="g92">&#10;				<path
   d="m 579.291,126.567 c 8.119,-7.508 7.747,-18.686 0.45,-26.615 -7.91,-8.595 -20.797,-7.579 -28.545,0.495 -7.15,7.452 -5.486,18.358 1.344,25.298 7.46,7.58 18.915,7.698 26.751,0.822 3.573,-3.135 -1.651,-8.317 -5.201,-5.202 -9.925,8.708 -26.704,-5.064 -17.691,-15.715 10.465,-12.367 29.747,4.566 17.691,15.715 -3.49,3.228 1.724,8.417 5.201,5.202 z"
   id="path92" />&#10;			</g>&#10;		</g>&#10;	</g>&#10;</g>&#10;</svg>
